<svg width="428" height="570" viewBox="0 0 428 570" fill="none" xmlns="http://www.w3.org/2000/svg">
<g clip-path="url(#clip0_21_5259)">
<path d="M334.896 388.809C432.369 321.582 457.241 188.587 390.451 91.747C323.661 -5.09279 190.506 -29.0977 93.0335 38.1291C-4.43936 105.356 -29.3113 238.351 37.4787 335.191C44.0586 344.731 51.2775 353.509 59.0477 361.585L9.75992 433.816L101.861 395.892C171.643 438.34 262.942 438.435 334.896 388.809Z" fill="#33B633"/>
<path d="M304.556 261.209C304.556 277.783 298.566 292.16 286.585 304.341C274.803 316.322 257.63 324.01 235.066 327.405V360.652H199.122V328.603C184.146 327.604 169.968 325.108 156.589 321.115C143.21 316.921 132.127 311.829 123.341 305.839L142.811 262.107C152.196 268.298 163.079 273.29 175.459 277.084C187.84 280.878 200.021 282.775 212.002 282.775C234.766 282.775 246.148 277.084 246.148 265.702C246.148 259.711 242.853 255.318 236.264 252.522C229.874 249.527 219.49 246.432 205.113 243.237C189.338 239.842 176.158 236.248 165.575 232.454C154.992 228.46 145.906 222.17 138.318 213.584C130.73 204.997 126.936 193.415 126.936 178.838C126.936 161.665 133.126 146.988 145.506 134.807C157.887 122.427 175.759 114.839 199.122 112.043V79.0951H235.066V111.444C246.448 112.443 257.331 114.44 267.714 117.435C278.298 120.43 287.683 124.324 295.87 129.116L277.599 173.147C257.63 162.364 238.261 156.973 219.49 156.973C207.709 156.973 199.122 158.77 193.731 162.364C188.339 165.759 185.643 170.252 185.643 175.843C185.643 181.434 188.838 185.628 195.228 188.423C201.618 191.219 211.902 194.114 226.08 197.11C242.055 200.504 255.234 204.198 265.618 208.192C276.201 211.986 285.287 218.176 292.875 226.763C300.663 235.15 304.556 246.632 304.556 261.209Z" fill="white"/>
<path d="M72.983 570C62.5504 570 53.1516 567.836 44.7866 563.507C36.4217 559.084 29.8425 552.967 25.0491 545.156C20.3497 537.251 18 528.31 18 518.335C18 508.36 20.3497 499.467 25.0491 491.656C29.8425 483.751 36.4217 477.634 44.7866 473.305C53.1516 468.882 62.5504 466.67 72.983 466.67C82.5698 466.67 91.1227 468.364 98.6418 471.752C106.161 475.14 112.364 480.033 117.251 486.433L96.2451 505.207C90.1359 497.49 82.9458 493.632 74.6748 493.632C67.7197 493.632 62.1274 495.89 57.8979 500.408C53.6685 504.831 51.5537 510.807 51.5537 518.335C51.5537 525.864 53.6685 531.887 57.8979 536.404C62.1274 540.827 67.7197 543.038 74.6748 543.038C82.9458 543.038 90.1359 539.18 96.2451 531.463L117.251 550.237C112.364 556.637 106.161 561.53 98.6418 564.918C91.1227 568.306 82.5698 570 72.983 570Z" fill="#101410"/>
<path d="M160.412 489.115C173.946 489.115 184.285 492.173 191.428 498.29C198.571 504.313 202.143 513.63 202.143 526.24V567.741H172.536V557.578C168.871 565.295 161.587 569.153 150.684 569.153C144.575 569.153 139.358 568.118 135.035 566.047C130.806 563.883 127.563 561.013 125.307 557.437C123.146 553.766 122.065 549.673 122.065 545.156C122.065 537.533 124.978 531.745 130.806 527.793C136.633 523.84 145.468 521.864 157.31 521.864H170.14C169.106 515.841 164.265 512.83 155.618 512.83C152.141 512.83 148.616 513.394 145.045 514.524C141.473 515.559 138.419 517.018 135.881 518.9L125.73 497.867C130.148 495.138 135.458 493.02 141.661 491.515C147.958 489.915 154.209 489.115 160.412 489.115ZM160.271 549.955C162.527 549.955 164.547 549.343 166.333 548.12C168.119 546.897 169.435 545.062 170.281 542.615V537.251H162.386C155.9 537.251 152.658 539.415 152.658 543.744C152.658 545.532 153.316 547.038 154.632 548.261C156.041 549.391 157.921 549.955 160.271 549.955Z" fill="#101410"/>
<path d="M302.583 463V567.741H272.272V561.389C267.667 566.565 260.618 569.153 251.125 569.153C244.358 569.153 238.108 567.553 232.374 564.354C226.735 561.06 222.224 556.354 218.84 550.237C215.55 544.12 213.906 537.062 213.906 529.063C213.906 521.064 215.55 514.053 218.84 508.03C222.224 501.913 226.735 497.255 232.374 494.055C238.108 490.762 244.358 489.115 251.125 489.115C259.678 489.115 266.21 491.326 270.721 495.749V463H302.583ZM258.738 544.309C262.404 544.309 265.411 542.991 267.761 540.356C270.111 537.627 271.285 533.863 271.285 529.063C271.285 524.264 270.111 520.547 267.761 517.912C265.411 515.277 262.404 513.959 258.738 513.959C255.072 513.959 252.065 515.277 249.715 517.912C247.365 520.547 246.191 524.264 246.191 529.063C246.191 533.863 247.365 537.627 249.715 540.356C252.065 542.991 255.072 544.309 258.738 544.309Z" fill="#101410"/>
<path d="M401 490.526V567.741H370.689V560.401C367.869 563.318 364.58 565.53 360.82 567.036C357.061 568.447 353.066 569.153 348.837 569.153C339.062 569.153 331.214 566.189 325.293 560.26C319.371 554.237 316.411 545.203 316.411 533.157V490.526H348.273V527.652C348.273 532.922 349.119 536.686 350.81 538.945C352.502 541.203 354.993 542.332 358.282 542.332C361.384 542.332 363.969 541.109 366.036 538.662C368.104 536.121 369.138 532.169 369.138 526.805V490.526H401Z" fill="#101410"/>
<path d="M44.4193 434.321L61.5342 463.5L58.5753 465.236L44.8834 441.893L44.939 468.251L43.4804 469.107L20.5776 456.325L34.1961 479.542L31.2373 481.279L14.1224 452.1L16.6645 450.608L42.0228 464.808L41.8772 435.813L44.4193 434.321Z" fill="#101410"/>
<path d="M88.4989 452.074L67.2674 450.986C67.3253 453.634 68.229 455.826 69.9786 457.561C71.7299 459.264 74.0049 460.187 76.8036 460.33C78.3798 460.411 79.8415 460.212 81.1884 459.732C82.537 459.221 83.7218 458.442 84.7429 457.398L86.5594 459.717C85.3642 461.011 83.8961 461.968 82.1549 462.588C80.4458 463.211 78.578 463.47 76.5514 463.366C73.9457 463.232 71.6575 462.567 69.6869 461.369C67.7501 460.141 66.269 458.516 65.2436 456.496C64.2182 454.475 63.7689 452.226 63.8958 449.749C64.0226 447.271 64.6671 445.078 65.8292 443.17C67.0235 441.263 68.5815 439.81 70.5033 438.812C72.4573 437.815 74.6085 437.377 76.9568 437.497C79.3052 437.618 81.3842 438.273 83.194 439.462C85.0038 440.652 86.3892 442.255 87.3503 444.272C88.313 446.257 88.7301 448.505 88.6016 451.014L88.4989 452.074ZM76.8061 440.441C74.3612 440.316 72.262 440.999 70.5085 442.49C68.7888 443.95 67.7521 445.93 67.3984 448.428L85.3969 449.35C85.3003 446.829 84.4551 444.753 82.8614 443.123C81.3015 441.462 79.2831 440.568 76.8061 440.441Z" fill="#101410"/>
<path d="M106.006 451.624C107.565 450.56 109.246 450.053 111.047 450.103C112.876 450.169 114.804 450.798 116.832 451.99L115.142 454.865L114.459 454.407C112.154 453.052 109.933 452.699 107.795 453.349C105.657 453.998 103.838 455.601 102.336 458.156L95.7756 469.322L92.8181 467.584L105.695 445.668L108.528 447.333L106.006 451.624Z" fill="#101410"/>
</g>
<defs>
<clipPath id="clip0_21_5259">
<rect width="428" height="570" fill="white"/>
</clipPath>
</defs>
</svg>
