<svg width="782" height="308" viewBox="0 0 782 308" fill="none" xmlns="http://www.w3.org/2000/svg">
<g clip-path="url(#clip0_1_1984)">
<path d="M752.196 130.943C781.484 110.743 788.957 70.7822 768.889 41.6846C748.82 12.587 708.811 5.37422 679.523 25.5739C650.236 45.7737 642.762 85.7349 662.831 114.832C664.808 117.699 666.977 120.337 669.312 122.763L654.502 144.467L682.176 133.071C703.143 145.826 730.576 145.854 752.196 130.943Z" fill="#33B633"/>
<path d="M743.08 92.6031C743.08 97.5831 741.28 101.903 737.68 105.563C734.14 109.163 728.98 111.473 722.2 112.493V122.483H711.4V112.853C706.9 112.553 702.64 111.803 698.62 110.603C694.6 109.343 691.27 107.813 688.63 106.013L694.48 92.8731C697.3 94.7331 700.57 96.2331 704.29 97.3731C708.01 98.5131 711.67 99.0831 715.27 99.0831C722.11 99.0831 725.53 97.3731 725.53 93.9531C725.53 92.1531 724.54 90.8331 722.56 89.9931C720.64 89.0931 717.52 88.1631 713.2 87.2031C708.46 86.1831 704.5 85.1031 701.32 83.9631C698.14 82.7631 695.41 80.8731 693.13 78.2931C690.85 75.7131 689.71 72.2331 689.71 67.8531C689.71 62.6931 691.57 58.2831 695.29 54.6231C699.01 50.9031 704.38 48.6231 711.4 47.7831V37.8831H722.2V47.6031C725.62 47.9031 728.89 48.5031 732.01 49.4031C735.19 50.3031 738.01 51.4731 740.47 52.9131L734.98 66.1431C728.98 62.9031 723.16 61.2831 717.52 61.2831C713.98 61.2831 711.4 61.8231 709.78 62.9031C708.16 63.9231 707.35 65.2731 707.35 66.9531C707.35 68.6331 708.31 69.8931 710.23 70.7331C712.15 71.5731 715.24 72.4431 719.5 73.3431C724.3 74.3631 728.26 75.4731 731.38 76.6731C734.56 77.8131 737.29 79.6731 739.57 82.2531C741.91 84.7731 743.08 88.2231 743.08 92.6031Z" fill="white"/>
<path d="M131.018 277.552C114.59 277.552 99.79 274.148 86.618 267.34C73.446 260.384 63.086 250.764 55.538 238.48C48.138 226.048 44.438 211.988 44.438 196.3C44.438 180.612 48.138 166.626 55.538 154.342C63.086 141.91 73.446 132.29 86.618 125.482C99.79 118.526 114.59 115.048 131.018 115.048C146.114 115.048 159.582 117.712 171.422 123.04C183.262 128.368 193.03 136.064 200.726 146.128L167.648 175.654C158.028 163.518 146.706 157.45 133.682 157.45C122.73 157.45 113.924 161.002 107.264 168.106C100.604 175.062 97.274 184.46 97.274 196.3C97.274 208.14 100.604 217.612 107.264 224.716C113.924 231.672 122.73 235.15 133.682 235.15C146.706 235.15 158.028 229.082 167.648 216.946L200.726 246.472C193.03 256.536 183.262 264.232 171.422 269.56C159.582 274.888 146.114 277.552 131.018 277.552Z" fill="#101410"/>
<path d="M268.689 150.346C290.001 150.346 306.281 155.156 317.529 164.776C328.777 174.248 334.401 188.9 334.401 208.732V274H287.781V258.016C282.009 270.152 270.539 276.22 253.371 276.22C243.751 276.22 235.537 274.592 228.729 271.336C222.069 267.932 216.963 263.418 213.411 257.794C210.007 252.022 208.305 245.584 208.305 238.48C208.305 226.492 212.893 217.39 222.069 211.174C231.245 204.958 245.157 201.85 263.805 201.85H284.007C282.379 192.378 274.757 187.642 261.141 187.642C255.665 187.642 250.115 188.53 244.491 190.306C238.867 191.934 234.057 194.228 230.061 197.188L214.077 164.11C221.033 159.818 229.395 156.488 239.163 154.12C249.079 151.604 258.921 150.346 268.689 150.346ZM268.467 246.028C272.019 246.028 275.201 245.066 278.013 243.142C280.825 241.218 282.897 238.332 284.229 234.484V226.048H271.797C261.585 226.048 256.479 229.452 256.479 236.26C256.479 239.072 257.515 241.44 259.587 243.364C261.807 245.14 264.767 246.028 268.467 246.028Z" fill="#101410"/>
<path d="M492.562 109.276V274H444.832V264.01C437.58 272.15 426.48 276.22 411.532 276.22C400.876 276.22 391.034 273.704 382.006 268.672C373.126 263.492 366.022 256.092 360.694 246.472C355.514 236.852 352.924 225.752 352.924 213.172C352.924 200.592 355.514 189.566 360.694 180.094C366.022 170.474 373.126 163.148 382.006 158.116C391.034 152.936 400.876 150.346 411.532 150.346C425 150.346 435.286 153.824 442.39 160.78V109.276H492.562ZM423.52 237.148C429.292 237.148 434.028 235.076 437.728 230.932C441.428 226.64 443.278 220.72 443.278 213.172C443.278 205.624 441.428 199.778 437.728 195.634C434.028 191.49 429.292 189.418 423.52 189.418C417.748 189.418 413.012 191.49 409.312 195.634C405.612 199.778 403.762 205.624 403.762 213.172C403.762 220.72 405.612 226.64 409.312 230.932C413.012 235.076 417.748 237.148 423.52 237.148Z" fill="#101410"/>
<path d="M647.536 152.566V274H599.806V262.456C595.366 267.044 590.186 270.522 584.266 272.89C578.346 275.11 572.056 276.22 565.396 276.22C550.004 276.22 537.646 271.558 528.322 262.234C518.998 252.762 514.336 238.554 514.336 219.61V152.566H564.508V210.952C564.508 219.24 565.84 225.16 568.504 228.712C571.168 232.264 575.09 234.04 580.27 234.04C585.154 234.04 589.224 232.116 592.48 228.268C595.736 224.272 597.364 218.056 597.364 209.62V152.566H647.536Z" fill="#101410"/>
<path d="M84.7718 63.2278L111.762 109.243L107.096 111.981L85.5038 75.169L85.5914 116.736L83.2912 118.086L47.1731 97.9276L68.6498 134.542L63.9836 137.281L36.9932 91.2656L41.0022 88.9131L80.9926 111.306L80.7629 65.5803L84.7718 63.2278Z" fill="#101410"/>
<path d="M154.286 91.224L120.804 89.5086C120.895 93.6851 122.32 97.1413 125.079 99.8773C127.841 102.563 131.429 104.018 135.842 104.244C138.328 104.372 140.633 104.057 142.757 103.301C144.884 102.495 146.752 101.268 148.363 99.6203L151.227 103.278C149.343 105.318 147.027 106.827 144.281 107.806C141.586 108.787 138.641 109.196 135.445 109.032C131.335 108.821 127.727 107.772 124.619 105.883C121.565 103.945 119.229 101.384 117.612 98.1974C115.995 95.0112 115.286 91.4644 115.487 87.5572C115.687 83.65 116.703 80.1917 118.536 77.1822C120.419 74.1752 122.876 71.8845 125.907 70.31C128.988 68.7381 132.381 68.047 136.084 68.2368C139.787 68.4265 143.066 69.4594 145.92 71.3354C148.774 73.2114 150.959 75.7399 152.475 78.921C153.993 82.0513 154.651 85.5955 154.448 89.5534L154.286 91.224ZM135.846 72.8797C131.991 72.6822 128.68 73.759 125.915 76.1103C123.203 78.4134 121.568 81.5348 121.01 85.4745L149.394 86.9288C149.242 82.9526 147.909 79.6792 145.396 77.1084C142.936 74.4894 139.752 73.0799 135.846 72.8797Z" fill="#101410"/>
<path d="M181.895 90.5154C184.354 88.8374 187.004 88.0377 189.845 88.1164C192.729 88.2209 195.77 89.2128 198.967 91.0921L196.303 95.6259L195.225 94.9037C191.59 92.767 188.087 92.2106 184.716 93.2347C181.345 94.2588 178.476 96.7858 176.108 100.816L165.761 118.425L161.097 115.684L181.404 81.1218L185.871 83.7476L181.895 90.5154Z" fill="#101410"/>
</g>
<defs>
<clipPath id="clip0_1_1984">
<rect width="782" height="308" fill="white"/>
</clipPath>
</defs>
</svg>
