<svg width="428" height="434" viewBox="0 0 428 434" fill="none" xmlns="http://www.w3.org/2000/svg">
<g clip-path="url(#clip0_21_5271)">
<path d="M334.896 388.809C432.369 321.582 457.241 188.587 390.451 91.747C323.661 -5.09279 190.506 -29.0977 93.0335 38.1291C-4.43936 105.356 -29.3113 238.351 37.4787 335.191C44.0586 344.731 51.2775 353.509 59.0477 361.585L9.75992 433.816L101.861 395.892C171.643 438.34 262.942 438.435 334.896 388.809Z" fill="#33B633"/>
<path opacity="0.33" d="M340 270.196C340 293.33 331.669 313.398 315.008 330.4C298.625 347.123 274.744 357.854 243.365 362.593V409H193.382V364.265C172.555 362.871 152.84 359.387 134.235 353.813C115.63 347.96 100.218 340.852 88 332.49L115.074 271.45C128.126 280.09 143.26 287.059 160.476 292.354C177.693 297.65 194.631 300.298 211.293 300.298C242.949 300.298 258.777 292.354 258.777 276.467C258.777 268.105 254.195 261.973 245.031 258.071C236.145 253.89 221.706 249.57 201.712 245.111C179.775 240.372 161.448 235.355 146.731 230.06C132.013 224.485 119.379 215.705 108.826 203.72C98.2744 191.735 92.9983 175.569 92.9983 155.222C92.9983 131.252 101.607 110.766 118.823 93.7638C136.04 76.483 160.893 65.8915 193.382 61.9894V16H243.365V61.1532C259.193 62.5468 274.327 65.3341 288.767 69.5149C303.484 73.6957 316.536 79.1308 327.921 85.8202L302.512 147.279C274.744 132.228 247.808 124.702 221.706 124.702C205.322 124.702 193.382 127.211 185.884 132.228C178.387 136.966 174.638 143.237 174.638 151.041C174.638 158.846 179.081 164.699 187.967 168.601C196.853 172.503 211.154 176.545 230.869 180.726C253.084 185.464 271.412 190.62 285.851 196.195C300.569 201.49 313.203 210.131 323.755 222.116C334.585 233.822 340 249.849 340 270.196Z" fill="#1C761C"/>
<path d="M80.7013 284C70.4048 284 61.1287 281.856 52.8729 277.567C44.6172 273.186 38.1239 267.126 33.3931 259.388C28.7551 251.557 26.436 242.7 26.436 232.818C26.436 222.936 28.7551 214.126 33.3931 206.388C38.1239 198.557 44.6172 192.497 52.8729 188.208C61.1287 183.827 70.4048 181.636 80.7013 181.636C90.1629 181.636 98.6042 183.314 106.025 186.67C113.446 190.026 119.568 194.874 124.392 201.214L103.66 219.813C97.6302 212.168 90.534 208.346 82.371 208.346C75.5067 208.346 69.9874 210.583 65.8131 215.058C61.6389 219.44 59.5517 225.36 59.5517 232.818C59.5517 240.276 61.6389 246.243 65.8131 250.718C69.9874 255.099 75.5067 257.29 82.371 257.29C90.534 257.29 97.6302 253.468 103.66 245.823L124.392 264.422C119.568 270.762 113.446 275.609 106.025 278.966C98.6042 282.322 90.1629 284 80.7013 284Z" fill="white"/>
<path d="M166.989 203.871C180.346 203.871 190.55 206.901 197.6 212.96C204.65 218.927 208.175 228.157 208.175 240.649V281.763H178.955V271.694C175.337 279.339 168.148 283.161 157.388 283.161C151.358 283.161 146.21 282.135 141.943 280.084C137.769 277.94 134.569 275.097 132.342 271.554C130.209 267.918 129.142 263.863 129.142 259.388C129.142 251.836 132.018 246.103 137.769 242.187C143.52 238.272 152.24 236.314 163.928 236.314H176.589C175.569 230.347 170.792 227.364 162.258 227.364C158.826 227.364 155.347 227.923 151.822 229.042C148.297 230.068 145.283 231.513 142.778 233.377L132.76 212.541C137.12 209.837 142.361 207.74 148.483 206.248C154.698 204.663 160.866 203.871 166.989 203.871ZM166.85 264.142C169.076 264.142 171.07 263.536 172.833 262.325C174.595 261.113 175.894 259.295 176.729 256.871V251.557H168.937C162.536 251.557 159.336 253.701 159.336 257.989C159.336 259.761 159.985 261.252 161.284 262.464C162.675 263.583 164.53 264.142 166.85 264.142Z" fill="white"/>
<path d="M307.304 178V281.763H277.389V275.47C272.844 280.597 265.886 283.161 256.518 283.161C249.839 283.161 243.67 281.576 238.012 278.406C232.446 275.143 227.994 270.482 224.654 264.422C221.408 258.362 219.784 251.37 219.784 243.446C219.784 235.522 221.408 228.576 224.654 222.609C227.994 216.55 232.446 211.935 238.012 208.765C243.67 205.502 249.839 203.871 256.518 203.871C264.959 203.871 271.406 206.062 275.858 210.443V178H307.304ZM264.031 258.549C267.649 258.549 270.617 257.244 272.936 254.633C275.255 251.93 276.415 248.201 276.415 243.446C276.415 238.691 275.255 235.009 272.936 232.398C270.617 229.788 267.649 228.483 264.031 228.483C260.414 228.483 257.445 229.788 255.126 232.398C252.807 235.009 251.648 238.691 251.648 243.446C251.648 248.201 252.807 251.93 255.126 254.633C257.445 257.244 260.414 258.549 264.031 258.549Z" fill="white"/>
<path d="M404.436 205.269V281.763H374.521V274.491C371.738 277.381 368.491 279.572 364.781 281.063C361.07 282.462 357.128 283.161 352.954 283.161C343.306 283.161 335.561 280.224 329.717 274.351C323.873 268.384 320.951 259.434 320.951 247.501V205.269H352.397V242.047C352.397 247.268 353.232 250.997 354.902 253.235C356.571 255.472 359.029 256.591 362.276 256.591C365.337 256.591 367.888 255.379 369.929 252.955C371.97 250.438 372.99 246.522 372.99 241.208V205.269H404.436Z" fill="white"/>
<path d="M52.9701 150.37L69.8495 179.147L66.9313 180.859L53.4279 157.838L53.4826 183.833L52.0441 184.677L29.4565 172.071L42.8876 194.969L39.9695 196.681L23.0901 167.904L25.5973 166.433L50.6066 180.437L50.463 151.841L52.9701 150.37Z" fill="white"/>
<path d="M96.4431 167.878L75.5038 166.805C75.5609 169.417 76.4522 171.579 78.1777 173.29C79.9049 174.969 82.1485 175.88 84.9087 176.021C86.4633 176.101 87.9048 175.904 89.2332 175.431C90.5633 174.927 91.7318 174.159 92.7388 173.129L94.5303 175.416C93.3516 176.692 91.9036 177.636 90.1864 178.248C88.5009 178.862 86.6587 179.117 84.66 179.015C82.0902 178.883 79.8335 178.227 77.89 177.046C75.9798 175.834 74.5191 174.232 73.5078 172.239C72.4965 170.247 72.0534 168.029 72.1786 165.585C72.3037 163.142 72.9393 160.979 74.0854 159.097C75.2632 157.216 76.7998 155.784 78.6952 154.799C80.6223 153.816 82.7439 153.384 85.0599 153.502C87.3759 153.621 89.4263 154.267 91.2112 155.44C92.9961 156.613 94.3624 158.195 95.3103 160.184C96.2598 162.142 96.6711 164.358 96.5444 166.834L96.4431 167.878ZM84.9112 156.406C82.5 156.283 80.4297 156.956 78.7003 158.426C77.0043 159.867 75.9818 161.819 75.633 164.283L93.3838 165.192C93.2885 162.706 92.455 160.658 90.8832 159.051C89.3448 157.413 87.3541 156.531 84.9112 156.406Z" fill="white"/>
<path d="M113.709 167.435C115.247 166.386 116.904 165.886 118.681 165.935C120.485 166 122.387 166.621 124.386 167.796L122.72 170.631L122.046 170.18C119.773 168.843 117.582 168.495 115.474 169.136C113.366 169.776 111.571 171.357 110.09 173.877L103.62 184.889L100.703 183.175L113.403 161.561L116.196 163.203L113.709 167.435Z" fill="white"/>
</g>
<defs>
<clipPath id="clip0_21_5271">
<rect width="428" height="434" fill="white"/>
</clipPath>
</defs>
</svg>
