<svg width="473" height="325" viewBox="0 0 473 325" fill="none" xmlns="http://www.w3.org/2000/svg">
<g opacity="0.3">
<path d="M1 93.6317H472.352" stroke="black" stroke-miterlimit="10" stroke-linecap="round" stroke-linejoin="round"/>
<path d="M1 110.081H472.352" stroke="black" stroke-miterlimit="10" stroke-linecap="round" stroke-linejoin="round"/>
<path d="M1 166.024H472.352" stroke="black" stroke-miterlimit="10" stroke-linecap="round" stroke-linejoin="round"/>
<path d="M1 182.474H472.352" stroke="black" stroke-miterlimit="10" stroke-linecap="round" stroke-linejoin="round"/>
<path d="M1 238.406H472.352" stroke="black" stroke-miterlimit="10" stroke-linecap="round" stroke-linejoin="round"/>
<path d="M1 254.867H472.352" stroke="black" stroke-miterlimit="10" stroke-linecap="round" stroke-linejoin="round"/>
<path d="M1 314.134H472.352" stroke="black" stroke-miterlimit="10" stroke-linecap="round" stroke-linejoin="round"/>
<path d="M1 323.999H472.352" stroke="black" stroke-miterlimit="10" stroke-linecap="round" stroke-linejoin="round"/>
<path d="M1 1H472.352" stroke="black" stroke-miterlimit="10" stroke-linecap="round" stroke-linejoin="round"/>
<path d="M1 40.1655H472.352" stroke="black" stroke-miterlimit="10" stroke-linecap="round" stroke-linejoin="round"/>
<path d="M35.2434 57.7371H12.5803V93.4306H35.2434V57.7371Z" stroke="black" stroke-miterlimit="10" stroke-linecap="round" stroke-linejoin="round"/>
<path d="M35.2434 61.4949H12.5803V89.6623H35.2434V61.4949Z" stroke="black" stroke-miterlimit="10" stroke-linecap="round" stroke-linejoin="round"/>
<path d="M23.9066 85.1211C27.7007 85.1211 30.7764 81.0217 30.7764 75.9649C30.7764 70.908 27.7007 66.8086 23.9066 66.8086C20.1125 66.8086 17.0367 70.908 17.0367 75.9649C17.0367 81.0217 20.1125 85.1211 23.9066 85.1211Z" stroke="black" stroke-miterlimit="10" stroke-linecap="round" stroke-linejoin="round"/>
<path d="M60.8174 57.7371H38.1543V93.4306H60.8174V57.7371Z" stroke="black" stroke-miterlimit="10" stroke-linecap="round" stroke-linejoin="round"/>
<path d="M60.8174 61.4949H38.1543V89.6623H60.8174V61.4949Z" stroke="black" stroke-miterlimit="10" stroke-linecap="round" stroke-linejoin="round"/>
<path d="M56.3504 75.9649C56.3504 81.0246 53.2701 85.1211 49.4806 85.1211C45.691 85.1211 42.6107 81.0246 42.6107 75.9649C42.6107 70.9051 45.691 66.8086 49.4806 66.8086C53.2807 66.8086 56.3504 70.9051 56.3504 75.9649Z" stroke="black" stroke-miterlimit="10" stroke-linecap="round" stroke-linejoin="round"/>
<path d="M86.3807 57.7371H63.7177V93.4306H86.3807V57.7371Z" stroke="black" stroke-miterlimit="10" stroke-linecap="round" stroke-linejoin="round"/>
<path d="M86.3807 61.4949H63.7177V89.6623H86.3807V61.4949Z" stroke="black" stroke-miterlimit="10" stroke-linecap="round" stroke-linejoin="round"/>
<path d="M75.0544 85.1211C78.8485 85.1211 81.9243 81.0217 81.9243 75.9649C81.9243 70.908 78.8485 66.8086 75.0544 66.8086C71.2603 66.8086 68.1846 70.908 68.1846 75.9649C68.1846 81.0217 71.2603 85.1211 75.0544 85.1211Z" stroke="black" stroke-miterlimit="10" stroke-linecap="round" stroke-linejoin="round"/>
<path d="M111.955 57.7371H89.2917V93.4306H111.955V57.7371Z" stroke="black" stroke-miterlimit="10" stroke-linecap="round" stroke-linejoin="round"/>
<path d="M111.955 61.4949H89.2917V89.6623H111.955V61.4949Z" stroke="black" stroke-miterlimit="10" stroke-linecap="round" stroke-linejoin="round"/>
<path d="M100.629 85.1211C104.423 85.1211 107.498 81.0217 107.498 75.9649C107.498 70.908 104.423 66.8086 100.629 66.8086C96.8344 66.8086 93.7587 70.908 93.7587 75.9649C93.7587 81.0217 96.8344 85.1211 100.629 85.1211Z" stroke="black" stroke-miterlimit="10" stroke-linecap="round" stroke-linejoin="round"/>
<path d="M137.529 57.7371H114.866V93.4306H137.529V57.7371Z" stroke="black" stroke-miterlimit="10" stroke-linecap="round" stroke-linejoin="round"/>
<path d="M137.529 61.4949H114.866V89.6623H137.529V61.4949Z" stroke="black" stroke-miterlimit="10" stroke-linecap="round" stroke-linejoin="round"/>
<path d="M126.202 85.1211C129.997 85.1211 133.072 81.0217 133.072 75.9649C133.072 70.908 129.997 66.8086 126.202 66.8086C122.408 66.8086 119.333 70.908 119.333 75.9649C119.333 81.0217 122.408 85.1211 126.202 85.1211Z" stroke="black" stroke-miterlimit="10" stroke-linecap="round" stroke-linejoin="round"/>
<path d="M163.103 57.7371H140.44V93.4306H163.103V57.7371Z" stroke="black" stroke-miterlimit="10" stroke-linecap="round" stroke-linejoin="round"/>
<path d="M163.103 61.4949H140.44V89.6623H163.103V61.4949Z" stroke="black" stroke-miterlimit="10" stroke-linecap="round" stroke-linejoin="round"/>
<path d="M151.777 85.1211C155.571 85.1211 158.646 81.0217 158.646 75.9649C158.646 70.908 155.571 66.8086 151.777 66.8086C147.982 66.8086 144.907 70.908 144.907 75.9649C144.907 81.0217 147.982 85.1211 151.777 85.1211Z" stroke="black" stroke-miterlimit="10" stroke-linecap="round" stroke-linejoin="round"/>
<path d="M188.677 57.7371H166.014V93.4306H188.677V57.7371Z" stroke="black" stroke-miterlimit="10" stroke-linecap="round" stroke-linejoin="round"/>
<path d="M188.677 61.4949H166.014V89.6623H188.677V61.4949Z" stroke="black" stroke-miterlimit="10" stroke-linecap="round" stroke-linejoin="round"/>
<path d="M177.34 85.1211C181.134 85.1211 184.21 81.0217 184.21 75.9649C184.21 70.908 181.134 66.8086 177.34 66.8086C173.546 66.8086 170.47 70.908 170.47 75.9649C170.47 81.0217 173.546 85.1211 177.34 85.1211Z" stroke="black" stroke-miterlimit="10" stroke-linecap="round" stroke-linejoin="round"/>
<path d="M214.399 57.7371H191.736V93.4306H214.399V57.7371Z" stroke="black" stroke-miterlimit="10" stroke-linecap="round" stroke-linejoin="round"/>
<path d="M214.399 61.4949H191.736V89.6623H214.399V61.4949Z" stroke="black" stroke-miterlimit="10" stroke-linecap="round" stroke-linejoin="round"/>
<path d="M209.943 75.9649C209.943 81.0246 206.862 85.1211 203.073 85.1211C199.283 85.1211 196.203 81.0246 196.203 75.9649C196.203 70.9051 199.283 66.8086 203.073 66.8086C206.862 66.8086 209.943 70.9051 209.943 75.9649Z" stroke="black" stroke-miterlimit="10" stroke-linecap="round" stroke-linejoin="round"/>
<path d="M239.973 57.7371H217.31V93.4306H239.973V57.7371Z" stroke="black" stroke-miterlimit="10" stroke-linecap="round" stroke-linejoin="round"/>
<path d="M239.973 61.4949H217.31V89.6623H239.973V61.4949Z" stroke="black" stroke-miterlimit="10" stroke-linecap="round" stroke-linejoin="round"/>
<path d="M228.647 85.1211C232.441 85.1211 235.517 81.0217 235.517 75.9649C235.517 70.908 232.441 66.8086 228.647 66.8086C224.853 66.8086 221.777 70.908 221.777 75.9649C221.777 81.0217 224.853 85.1211 228.647 85.1211Z" stroke="black" stroke-miterlimit="10" stroke-linecap="round" stroke-linejoin="round"/>
<path d="M265.547 57.7371H242.884V93.4306H265.547V57.7371Z" stroke="black" stroke-miterlimit="10" stroke-linecap="round" stroke-linejoin="round"/>
<path d="M265.547 61.4949H242.884V89.6623H265.547V61.4949Z" stroke="black" stroke-miterlimit="10" stroke-linecap="round" stroke-linejoin="round"/>
<path d="M254.221 85.1211C258.015 85.1211 261.091 81.0217 261.091 75.9649C261.091 70.908 258.015 66.8086 254.221 66.8086C250.427 66.8086 247.351 70.908 247.351 75.9649C247.351 81.0217 250.427 85.1211 254.221 85.1211Z" stroke="black" stroke-miterlimit="10" stroke-linecap="round" stroke-linejoin="round"/>
<path d="M291.121 57.7371H268.458V93.4306H291.121V57.7371Z" stroke="black" stroke-miterlimit="10" stroke-linecap="round" stroke-linejoin="round"/>
<path d="M291.121 61.4949H268.458V89.6623H291.121V61.4949Z" stroke="black" stroke-miterlimit="10" stroke-linecap="round" stroke-linejoin="round"/>
<path d="M279.784 85.1211C283.578 85.1211 286.654 81.0217 286.654 75.9649C286.654 70.908 283.578 66.8086 279.784 66.8086C275.99 66.8086 272.914 70.908 272.914 75.9649C272.914 81.0217 275.99 85.1211 279.784 85.1211Z" stroke="black" stroke-miterlimit="10" stroke-linecap="round" stroke-linejoin="round"/>
<path d="M316.695 57.7371H294.032V93.4306H316.695V57.7371Z" stroke="black" stroke-miterlimit="10" stroke-linecap="round" stroke-linejoin="round"/>
<path d="M316.695 61.4949H294.032V89.6623H316.695V61.4949Z" stroke="black" stroke-miterlimit="10" stroke-linecap="round" stroke-linejoin="round"/>
<path d="M305.358 85.1211C309.152 85.1211 312.228 81.0217 312.228 75.9649C312.228 70.908 309.152 66.8086 305.358 66.8086C301.564 66.8086 298.488 70.908 298.488 75.9649C298.488 81.0217 301.564 85.1211 305.358 85.1211Z" stroke="black" stroke-miterlimit="10" stroke-linecap="round" stroke-linejoin="round"/>
<path d="M342.269 57.7371H319.606V93.4306H342.269V57.7371Z" stroke="black" stroke-miterlimit="10" stroke-linecap="round" stroke-linejoin="round"/>
<path d="M342.269 61.4949H319.606V89.6623H342.269V61.4949Z" stroke="black" stroke-miterlimit="10" stroke-linecap="round" stroke-linejoin="round"/>
<path d="M330.932 85.1211C334.726 85.1211 337.802 81.0217 337.802 75.9649C337.802 70.908 334.726 66.8086 330.932 66.8086C327.138 66.8086 324.062 70.908 324.062 75.9649C324.062 81.0217 327.138 85.1211 330.932 85.1211Z" stroke="black" stroke-miterlimit="10" stroke-linecap="round" stroke-linejoin="round"/>
<path d="M367.833 57.7371H345.169V93.4306H367.833V57.7371Z" stroke="black" stroke-miterlimit="10" stroke-linecap="round" stroke-linejoin="round"/>
<path d="M367.833 61.4949H345.169V89.6623H367.833V61.4949Z" stroke="black" stroke-miterlimit="10" stroke-linecap="round" stroke-linejoin="round"/>
<path d="M356.506 85.1211C360.3 85.1211 363.376 81.0217 363.376 75.9649C363.376 70.908 360.3 66.8086 356.506 66.8086C352.712 66.8086 349.636 70.908 349.636 75.9649C349.636 81.0217 352.712 85.1211 356.506 85.1211Z" stroke="black" stroke-miterlimit="10" stroke-linecap="round" stroke-linejoin="round"/>
<path d="M395.227 76.8964H380.556L377.412 61.7383H398.371L395.227 76.8964Z" stroke="black" stroke-miterlimit="10" stroke-linecap="round" stroke-linejoin="round"/>
<path d="M398.858 60.1294H376.925V61.7384H398.858V60.1294Z" stroke="black" stroke-miterlimit="10" stroke-linecap="round" stroke-linejoin="round"/>
<path d="M395.227 93.653H380.556L377.412 78.4949H398.371L395.227 93.653Z" stroke="black" stroke-miterlimit="10" stroke-linecap="round" stroke-linejoin="round"/>
<path d="M398.858 76.8859H376.925V78.4948H398.858V76.8859Z" stroke="black" stroke-miterlimit="10" stroke-linecap="round" stroke-linejoin="round"/>
<path d="M421.129 76.8964H406.448L403.304 61.7383H424.273L421.129 76.8964Z" stroke="black" stroke-miterlimit="10" stroke-linecap="round" stroke-linejoin="round"/>
<path d="M424.75 60.1294H402.817V61.7384H424.75V60.1294Z" stroke="black" stroke-miterlimit="10" stroke-linecap="round" stroke-linejoin="round"/>
<path d="M266.002 238.354H257.418L255.576 223.185H267.833L266.002 238.354Z" stroke="black" stroke-miterlimit="10" stroke-linecap="round" stroke-linejoin="round"/>
<path d="M268.119 221.576H255.29V223.185H268.119V221.576Z" stroke="black" stroke-miterlimit="10" stroke-linecap="round" stroke-linejoin="round"/>
<path d="M279.689 238.354H271.104L269.263 223.185H281.531L279.689 238.354Z" stroke="black" stroke-miterlimit="10" stroke-linecap="round" stroke-linejoin="round"/>
<path d="M281.806 221.576H268.977V223.185H281.806V221.576Z" stroke="black" stroke-miterlimit="10" stroke-linecap="round" stroke-linejoin="round"/>
<path d="M293.376 238.354H284.791L282.949 223.185H295.218L293.376 238.354Z" stroke="black" stroke-miterlimit="10" stroke-linecap="round" stroke-linejoin="round"/>
<path d="M295.503 221.576H282.674V223.185H295.503V221.576Z" stroke="black" stroke-miterlimit="10" stroke-linecap="round" stroke-linejoin="round"/>
<path d="M307.062 238.354H298.478L296.646 223.185H308.904L307.062 238.354Z" stroke="black" stroke-miterlimit="10" stroke-linecap="round" stroke-linejoin="round"/>
<path d="M309.19 221.576H296.361V223.185H309.19V221.576Z" stroke="black" stroke-miterlimit="10" stroke-linecap="round" stroke-linejoin="round"/>
<path d="M320.749 238.354H312.165L310.333 223.185H322.591L320.749 238.354Z" stroke="black" stroke-miterlimit="10" stroke-linecap="round" stroke-linejoin="round"/>
<path d="M322.877 221.576H310.047V223.185H322.877V221.576Z" stroke="black" stroke-miterlimit="10" stroke-linecap="round" stroke-linejoin="round"/>
<path d="M334.436 238.354H325.862L324.02 223.185H336.278L334.436 238.354Z" stroke="black" stroke-miterlimit="10" stroke-linecap="round" stroke-linejoin="round"/>
<path d="M336.564 221.576H323.734V223.185H336.564V221.576Z" stroke="black" stroke-miterlimit="10" stroke-linecap="round" stroke-linejoin="round"/>
<path d="M272.681 221.459H264.097L262.255 206.301H274.513L272.681 221.459Z" stroke="black" stroke-miterlimit="10" stroke-linecap="round" stroke-linejoin="round"/>
<path d="M274.798 204.692H261.969V206.301H274.798V204.692Z" stroke="black" stroke-miterlimit="10" stroke-linecap="round" stroke-linejoin="round"/>
<path d="M286.368 221.459H277.784L275.942 206.301H288.2L286.368 221.459Z" stroke="black" stroke-miterlimit="10" stroke-linecap="round" stroke-linejoin="round"/>
<path d="M288.485 204.692H275.656V206.301H288.485V204.692Z" stroke="black" stroke-miterlimit="10" stroke-linecap="round" stroke-linejoin="round"/>
<path d="M279.573 204.586H270.988L269.157 189.428H281.414L279.573 204.586Z" stroke="black" stroke-miterlimit="10" stroke-linecap="round" stroke-linejoin="round"/>
<path d="M281.7 187.819H268.871V189.428H281.7V187.819Z" stroke="black" stroke-miterlimit="10" stroke-linecap="round" stroke-linejoin="round"/>
<path d="M300.055 221.459H291.47L289.629 206.301H301.897L300.055 221.459Z" stroke="black" stroke-miterlimit="10" stroke-linecap="round" stroke-linejoin="round"/>
<path d="M302.183 204.692H289.353V206.301H302.183V204.692Z" stroke="black" stroke-miterlimit="10" stroke-linecap="round" stroke-linejoin="round"/>
<path d="M293.259 204.586H284.675L282.843 189.428H295.101L293.259 204.586Z" stroke="black" stroke-miterlimit="10" stroke-linecap="round" stroke-linejoin="round"/>
<path d="M295.387 187.819H282.558V189.428H295.387V187.819Z" stroke="black" stroke-miterlimit="10" stroke-linecap="round" stroke-linejoin="round"/>
<path d="M313.742 221.459H305.157L303.315 206.301H315.584L313.742 221.459Z" stroke="black" stroke-miterlimit="10" stroke-linecap="round" stroke-linejoin="round"/>
<path d="M315.869 204.692H303.04V206.301H315.869V204.692Z" stroke="black" stroke-miterlimit="10" stroke-linecap="round" stroke-linejoin="round"/>
<path d="M306.946 204.586H298.372L296.53 189.428H308.788L306.946 204.586Z" stroke="black" stroke-miterlimit="10" stroke-linecap="round" stroke-linejoin="round"/>
<path d="M309.074 187.819H296.244V189.428H309.074V187.819Z" stroke="black" stroke-miterlimit="10" stroke-linecap="round" stroke-linejoin="round"/>
<path d="M327.429 221.459H318.844L317.013 206.301H329.27L327.429 221.459Z" stroke="black" stroke-miterlimit="10" stroke-linecap="round" stroke-linejoin="round"/>
<path d="M329.556 204.692H316.727V206.301H329.556V204.692Z" stroke="black" stroke-miterlimit="10" stroke-linecap="round" stroke-linejoin="round"/>
<path d="M320.643 204.586H312.059L310.217 189.428H322.475L320.643 204.586Z" stroke="black" stroke-miterlimit="10" stroke-linecap="round" stroke-linejoin="round"/>
<path d="M322.76 187.819H309.931V189.428H322.76V187.819Z" stroke="black" stroke-miterlimit="10" stroke-linecap="round" stroke-linejoin="round"/>
<path d="M354.876 238.354H346.292L344.45 223.185H356.707L354.876 238.354Z" stroke="black" stroke-miterlimit="10" stroke-linecap="round" stroke-linejoin="round"/>
<path d="M356.993 221.576H344.164V223.185H356.993V221.576Z" stroke="black" stroke-miterlimit="10" stroke-linecap="round" stroke-linejoin="round"/>
<path d="M368.563 238.354H359.978L358.136 223.185H370.405L368.563 238.354Z" stroke="black" stroke-miterlimit="10" stroke-linecap="round" stroke-linejoin="round"/>
<path d="M370.691 221.576H357.861V223.185H370.691V221.576Z" stroke="black" stroke-miterlimit="10" stroke-linecap="round" stroke-linejoin="round"/>
<path d="M382.25 238.354H373.665L371.823 223.185H384.092L382.25 238.354Z" stroke="black" stroke-miterlimit="10" stroke-linecap="round" stroke-linejoin="round"/>
<path d="M384.377 221.576H371.548V223.185H384.377V221.576Z" stroke="black" stroke-miterlimit="10" stroke-linecap="round" stroke-linejoin="round"/>
<path d="M395.937 238.354H387.352L385.521 223.185H397.778L395.937 238.354Z" stroke="black" stroke-miterlimit="10" stroke-linecap="round" stroke-linejoin="round"/>
<path d="M398.064 221.576H385.235V223.185H398.064V221.576Z" stroke="black" stroke-miterlimit="10" stroke-linecap="round" stroke-linejoin="round"/>
<path d="M409.623 238.354H401.039L399.207 223.185H411.465L409.623 238.354Z" stroke="black" stroke-miterlimit="10" stroke-linecap="round" stroke-linejoin="round"/>
<path d="M411.751 221.576H398.922V223.185H411.751V221.576Z" stroke="black" stroke-miterlimit="10" stroke-linecap="round" stroke-linejoin="round"/>
<path d="M423.31 238.354H414.736L412.894 223.185H425.152L423.31 238.354Z" stroke="black" stroke-miterlimit="10" stroke-linecap="round" stroke-linejoin="round"/>
<path d="M425.438 221.576H412.608V223.185H425.438V221.576Z" stroke="black" stroke-miterlimit="10" stroke-linecap="round" stroke-linejoin="round"/>
<path d="M361.556 221.459H352.971L351.129 206.301H363.387L361.556 221.459Z" stroke="black" stroke-miterlimit="10" stroke-linecap="round" stroke-linejoin="round"/>
<path d="M363.673 204.692H350.843V206.301H363.673V204.692Z" stroke="black" stroke-miterlimit="10" stroke-linecap="round" stroke-linejoin="round"/>
<path d="M375.242 221.459H366.658L364.816 206.301H377.084L375.242 221.459Z" stroke="black" stroke-miterlimit="10" stroke-linecap="round" stroke-linejoin="round"/>
<path d="M377.37 204.692H364.541V206.301H377.37V204.692Z" stroke="black" stroke-miterlimit="10" stroke-linecap="round" stroke-linejoin="round"/>
<path d="M368.447 204.586H359.862L358.031 189.428H370.288L368.447 204.586Z" stroke="black" stroke-miterlimit="10" stroke-linecap="round" stroke-linejoin="round"/>
<path d="M370.574 187.819H357.745V189.428H370.574V187.819Z" stroke="black" stroke-miterlimit="10" stroke-linecap="round" stroke-linejoin="round"/>
<path d="M388.929 221.459H380.344L378.502 206.301H390.771L388.929 221.459Z" stroke="black" stroke-miterlimit="10" stroke-linecap="round" stroke-linejoin="round"/>
<path d="M391.057 204.692H378.227V206.301H391.057V204.692Z" stroke="black" stroke-miterlimit="10" stroke-linecap="round" stroke-linejoin="round"/>
<path d="M382.133 204.586H373.559L371.717 189.428H383.975L382.133 204.586Z" stroke="black" stroke-miterlimit="10" stroke-linecap="round" stroke-linejoin="round"/>
<path d="M384.261 187.819H371.432V189.428H384.261V187.819Z" stroke="black" stroke-miterlimit="10" stroke-linecap="round" stroke-linejoin="round"/>
<path d="M402.616 221.459H394.031L392.2 206.301H404.458L402.616 221.459Z" stroke="black" stroke-miterlimit="10" stroke-linecap="round" stroke-linejoin="round"/>
<path d="M404.743 204.692H391.914V206.301H404.743V204.692Z" stroke="black" stroke-miterlimit="10" stroke-linecap="round" stroke-linejoin="round"/>
<path d="M395.82 204.586H387.246L385.404 189.428H397.662L395.82 204.586Z" stroke="black" stroke-miterlimit="10" stroke-linecap="round" stroke-linejoin="round"/>
<path d="M397.948 187.819H385.118V189.428H397.948V187.819Z" stroke="black" stroke-miterlimit="10" stroke-linecap="round" stroke-linejoin="round"/>
<path d="M416.303 221.459H407.718L405.887 206.301H418.144L416.303 221.459Z" stroke="black" stroke-miterlimit="10" stroke-linecap="round" stroke-linejoin="round"/>
<path d="M418.43 204.692H405.601V206.301H418.43V204.692Z" stroke="black" stroke-miterlimit="10" stroke-linecap="round" stroke-linejoin="round"/>
<path d="M409.517 204.586H400.933L399.091 189.428H411.349L409.517 204.586Z" stroke="black" stroke-miterlimit="10" stroke-linecap="round" stroke-linejoin="round"/>
<path d="M411.634 187.819H398.805V189.428H411.634V187.819Z" stroke="black" stroke-miterlimit="10" stroke-linecap="round" stroke-linejoin="round"/>
<path d="M17.4813 313.784H8.90727L7.06543 298.626H19.3232L17.4813 313.784Z" stroke="black" stroke-miterlimit="10" stroke-linecap="round" stroke-linejoin="round"/>
<path d="M19.6089 297.007H6.77954V298.616H19.6089V297.007Z" stroke="black" stroke-miterlimit="10" stroke-linecap="round" stroke-linejoin="round"/>
<path d="M31.168 313.784H22.5939L20.7521 298.626H33.0098L31.168 313.784Z" stroke="black" stroke-miterlimit="10" stroke-linecap="round" stroke-linejoin="round"/>
<path d="M33.2957 297.007H20.4663V298.616H33.2957V297.007Z" stroke="black" stroke-miterlimit="10" stroke-linecap="round" stroke-linejoin="round"/>
<path d="M44.8653 313.784H36.2807L34.4388 298.626H46.6966L44.8653 313.784Z" stroke="black" stroke-miterlimit="10" stroke-linecap="round" stroke-linejoin="round"/>
<path d="M46.9824 297.007H34.1531V298.616H46.9824V297.007Z" stroke="black" stroke-miterlimit="10" stroke-linecap="round" stroke-linejoin="round"/>
<path d="M58.5522 313.784H49.9676L48.1257 298.626H60.3941L58.5522 313.784Z" stroke="black" stroke-miterlimit="10" stroke-linecap="round" stroke-linejoin="round"/>
<path d="M60.6692 297.007H47.8398V298.616H60.6692V297.007Z" stroke="black" stroke-miterlimit="10" stroke-linecap="round" stroke-linejoin="round"/>
<path d="M72.2387 313.784H63.6541L61.8123 298.626H74.0806L72.2387 313.784Z" stroke="black" stroke-miterlimit="10" stroke-linecap="round" stroke-linejoin="round"/>
<path d="M74.3665 297.007H61.5371V298.616H74.3665V297.007Z" stroke="black" stroke-miterlimit="10" stroke-linecap="round" stroke-linejoin="round"/>
<path d="M85.9256 313.784H77.341L75.4991 298.626H87.7675L85.9256 313.784Z" stroke="black" stroke-miterlimit="10" stroke-linecap="round" stroke-linejoin="round"/>
<path d="M88.0532 297.007H75.2239V298.616H88.0532V297.007Z" stroke="black" stroke-miterlimit="10" stroke-linecap="round" stroke-linejoin="round"/>
<path d="M24.1605 296.901H15.5759L13.7446 281.743H26.0024L24.1605 296.901Z" stroke="black" stroke-miterlimit="10" stroke-linecap="round" stroke-linejoin="round"/>
<path d="M26.2882 280.123H13.4589V281.732H26.2882V280.123Z" stroke="black" stroke-miterlimit="10" stroke-linecap="round" stroke-linejoin="round"/>
<path d="M37.8473 296.901H29.2732L27.4314 281.743H39.6891L37.8473 296.901Z" stroke="black" stroke-miterlimit="10" stroke-linecap="round" stroke-linejoin="round"/>
<path d="M39.975 280.123H27.1456V281.732H39.975V280.123Z" stroke="black" stroke-miterlimit="10" stroke-linecap="round" stroke-linejoin="round"/>
<path d="M31.0622 280.028H22.4776L20.6357 264.859H32.9041L31.0622 280.028Z" stroke="black" stroke-miterlimit="10" stroke-linecap="round" stroke-linejoin="round"/>
<path d="M33.1898 263.25H20.3605V264.859H33.1898V263.25Z" stroke="black" stroke-miterlimit="10" stroke-linecap="round" stroke-linejoin="round"/>
<path d="M51.5448 296.901H42.9601L41.1183 281.743H53.376L51.5448 296.901Z" stroke="black" stroke-miterlimit="10" stroke-linecap="round" stroke-linejoin="round"/>
<path d="M53.6617 280.123H40.8324V281.732H53.6617V280.123Z" stroke="black" stroke-miterlimit="10" stroke-linecap="round" stroke-linejoin="round"/>
<path d="M44.749 280.028H36.1643L34.3225 264.859H46.5908L44.749 280.028Z" stroke="black" stroke-miterlimit="10" stroke-linecap="round" stroke-linejoin="round"/>
<path d="M46.8766 263.25H34.0472V264.859H46.8766V263.25Z" stroke="black" stroke-miterlimit="10" stroke-linecap="round" stroke-linejoin="round"/>
<path d="M65.2313 296.901H56.6466L54.8048 281.743H67.0626L65.2313 296.901Z" stroke="black" stroke-miterlimit="10" stroke-linecap="round" stroke-linejoin="round"/>
<path d="M67.3484 280.123H54.519V281.732H67.3484V280.123Z" stroke="black" stroke-miterlimit="10" stroke-linecap="round" stroke-linejoin="round"/>
<path d="M58.4358 280.028H49.8511L48.0199 264.859H60.2776L58.4358 280.028Z" stroke="black" stroke-miterlimit="10" stroke-linecap="round" stroke-linejoin="round"/>
<path d="M60.5634 263.25H47.734V264.859H60.5634V263.25Z" stroke="black" stroke-miterlimit="10" stroke-linecap="round" stroke-linejoin="round"/>
<path d="M78.9182 296.901H70.3335L68.4917 281.743H80.76L78.9182 296.901Z" stroke="black" stroke-miterlimit="10" stroke-linecap="round" stroke-linejoin="round"/>
<path d="M81.0458 280.123H68.2164V281.732H81.0458V280.123Z" stroke="black" stroke-miterlimit="10" stroke-linecap="round" stroke-linejoin="round"/>
<path d="M72.1226 280.028H63.5379L61.7067 264.859H73.9644L72.1226 280.028Z" stroke="black" stroke-miterlimit="10" stroke-linecap="round" stroke-linejoin="round"/>
<path d="M74.2501 263.25H61.4208V264.859H74.2501V263.25Z" stroke="black" stroke-miterlimit="10" stroke-linecap="round" stroke-linejoin="round"/>
<path d="M105.784 313.784H97.1991L95.3678 298.626H107.626L105.784 313.784Z" stroke="black" stroke-miterlimit="10" stroke-linecap="round" stroke-linejoin="round"/>
<path d="M107.911 297.007H95.0819V298.616H107.911V297.007Z" stroke="black" stroke-miterlimit="10" stroke-linecap="round" stroke-linejoin="round"/>
<path d="M119.47 313.784H110.896L109.055 298.626H121.312L119.47 313.784Z" stroke="black" stroke-miterlimit="10" stroke-linecap="round" stroke-linejoin="round"/>
<path d="M121.598 297.007H108.769V298.616H121.598V297.007Z" stroke="black" stroke-miterlimit="10" stroke-linecap="round" stroke-linejoin="round"/>
<path d="M133.168 313.784H124.583L122.741 298.626H134.999L133.168 313.784Z" stroke="black" stroke-miterlimit="10" stroke-linecap="round" stroke-linejoin="round"/>
<path d="M135.285 297.007H122.455V298.616H135.285V297.007Z" stroke="black" stroke-miterlimit="10" stroke-linecap="round" stroke-linejoin="round"/>
<path d="M146.854 313.784H138.27L136.428 298.626H148.686L146.854 313.784Z" stroke="black" stroke-miterlimit="10" stroke-linecap="round" stroke-linejoin="round"/>
<path d="M148.972 297.007H136.142V298.616H148.972V297.007Z" stroke="black" stroke-miterlimit="10" stroke-linecap="round" stroke-linejoin="round"/>
<path d="M160.541 313.784H151.956L150.115 298.626H162.383L160.541 313.784Z" stroke="black" stroke-miterlimit="10" stroke-linecap="round" stroke-linejoin="round"/>
<path d="M162.669 297.007H149.839V298.616H162.669V297.007Z" stroke="black" stroke-miterlimit="10" stroke-linecap="round" stroke-linejoin="round"/>
<path d="M174.228 313.784H165.643L163.802 298.626H176.07L174.228 313.784Z" stroke="black" stroke-miterlimit="10" stroke-linecap="round" stroke-linejoin="round"/>
<path d="M176.356 297.007H163.526V298.616H176.356V297.007Z" stroke="black" stroke-miterlimit="10" stroke-linecap="round" stroke-linejoin="round"/>
<path d="M112.463 296.901H103.878L102.047 281.743H114.305L112.463 296.901Z" stroke="black" stroke-miterlimit="10" stroke-linecap="round" stroke-linejoin="round"/>
<path d="M114.591 280.123H101.761V281.732H114.591V280.123Z" stroke="black" stroke-miterlimit="10" stroke-linecap="round" stroke-linejoin="round"/>
<path d="M126.15 296.901H117.576L115.734 281.743H127.992L126.15 296.901Z" stroke="black" stroke-miterlimit="10" stroke-linecap="round" stroke-linejoin="round"/>
<path d="M128.277 280.123H115.448V281.732H128.277V280.123Z" stroke="black" stroke-miterlimit="10" stroke-linecap="round" stroke-linejoin="round"/>
<path d="M119.365 280.028H110.78L108.938 264.859H121.196L119.365 280.028Z" stroke="black" stroke-miterlimit="10" stroke-linecap="round" stroke-linejoin="round"/>
<path d="M121.482 263.25H108.652V264.859H121.482V263.25Z" stroke="black" stroke-miterlimit="10" stroke-linecap="round" stroke-linejoin="round"/>
<path d="M139.836 296.901H131.262L129.421 281.743H141.678L139.836 296.901Z" stroke="black" stroke-miterlimit="10" stroke-linecap="round" stroke-linejoin="round"/>
<path d="M141.964 280.123H129.135V281.732H141.964V280.123Z" stroke="black" stroke-miterlimit="10" stroke-linecap="round" stroke-linejoin="round"/>
<path d="M133.051 280.028H124.467L122.625 264.859H134.893L133.051 280.028Z" stroke="black" stroke-miterlimit="10" stroke-linecap="round" stroke-linejoin="round"/>
<path d="M135.179 263.25H122.35V264.859H135.179V263.25Z" stroke="black" stroke-miterlimit="10" stroke-linecap="round" stroke-linejoin="round"/>
<path d="M153.534 296.901H144.949L143.107 281.743H155.365L153.534 296.901Z" stroke="black" stroke-miterlimit="10" stroke-linecap="round" stroke-linejoin="round"/>
<path d="M155.651 280.123H142.822V281.732H155.651V280.123Z" stroke="black" stroke-miterlimit="10" stroke-linecap="round" stroke-linejoin="round"/>
<path d="M146.738 280.028H138.153L136.311 264.859H148.58L146.738 280.028Z" stroke="black" stroke-miterlimit="10" stroke-linecap="round" stroke-linejoin="round"/>
<path d="M148.866 263.25H136.036V264.859H148.866V263.25Z" stroke="black" stroke-miterlimit="10" stroke-linecap="round" stroke-linejoin="round"/>
<path d="M167.221 296.901H158.636L156.794 281.743H169.063L167.221 296.901Z" stroke="black" stroke-miterlimit="10" stroke-linecap="round" stroke-linejoin="round"/>
<path d="M169.338 280.123H156.508V281.732H169.338V280.123Z" stroke="black" stroke-miterlimit="10" stroke-linecap="round" stroke-linejoin="round"/>
<path d="M160.425 280.028H151.84L150.009 264.859H162.267L160.425 280.028Z" stroke="black" stroke-miterlimit="10" stroke-linecap="round" stroke-linejoin="round"/>
<path d="M162.552 263.25H149.723V264.859H162.552V263.25Z" stroke="black" stroke-miterlimit="10" stroke-linecap="round" stroke-linejoin="round"/>
<path d="M194.086 313.784H185.501L183.67 298.626H195.928L194.086 313.784Z" stroke="black" stroke-miterlimit="10" stroke-linecap="round" stroke-linejoin="round"/>
<path d="M196.214 297.007H183.384V298.616H196.214V297.007Z" stroke="black" stroke-miterlimit="10" stroke-linecap="round" stroke-linejoin="round"/>
<path d="M207.773 313.784H199.188L197.357 298.626H209.614L207.773 313.784Z" stroke="black" stroke-miterlimit="10" stroke-linecap="round" stroke-linejoin="round"/>
<path d="M209.9 297.007H197.071V298.616H209.9V297.007Z" stroke="black" stroke-miterlimit="10" stroke-linecap="round" stroke-linejoin="round"/>
<path d="M221.459 313.784H212.885L211.043 298.626H223.301L221.459 313.784Z" stroke="black" stroke-miterlimit="10" stroke-linecap="round" stroke-linejoin="round"/>
<path d="M223.587 297.007H210.758V298.616H223.587V297.007Z" stroke="black" stroke-miterlimit="10" stroke-linecap="round" stroke-linejoin="round"/>
<path d="M235.157 313.784H226.572L224.73 298.626H236.988L235.157 313.784Z" stroke="black" stroke-miterlimit="10" stroke-linecap="round" stroke-linejoin="round"/>
<path d="M237.274 297.007H224.444V298.616H237.274V297.007Z" stroke="black" stroke-miterlimit="10" stroke-linecap="round" stroke-linejoin="round"/>
<path d="M248.843 313.784H240.259L238.417 298.626H250.675L248.843 313.784Z" stroke="black" stroke-miterlimit="10" stroke-linecap="round" stroke-linejoin="round"/>
<path d="M250.96 297.007H238.131V298.616H250.96V297.007Z" stroke="black" stroke-miterlimit="10" stroke-linecap="round" stroke-linejoin="round"/>
<path d="M262.53 313.784H253.946L252.104 298.626H264.372L262.53 313.784Z" stroke="black" stroke-miterlimit="10" stroke-linecap="round" stroke-linejoin="round"/>
<path d="M264.658 297.007H251.828V298.616H264.658V297.007Z" stroke="black" stroke-miterlimit="10" stroke-linecap="round" stroke-linejoin="round"/>
<path d="M200.765 296.901H192.181L190.349 281.743H202.607L200.765 296.901Z" stroke="black" stroke-miterlimit="10" stroke-linecap="round" stroke-linejoin="round"/>
<path d="M202.893 280.123H190.063V281.732H202.893V280.123Z" stroke="black" stroke-miterlimit="10" stroke-linecap="round" stroke-linejoin="round"/>
<path d="M214.452 296.901H205.867L204.036 281.743H216.294L214.452 296.901Z" stroke="black" stroke-miterlimit="10" stroke-linecap="round" stroke-linejoin="round"/>
<path d="M216.579 280.123H203.75V281.732H216.579V280.123Z" stroke="black" stroke-miterlimit="10" stroke-linecap="round" stroke-linejoin="round"/>
<path d="M207.667 280.028H199.082L197.24 264.859H209.498L207.667 280.028Z" stroke="black" stroke-miterlimit="10" stroke-linecap="round" stroke-linejoin="round"/>
<path d="M209.784 263.25H196.954V264.859H209.784V263.25Z" stroke="black" stroke-miterlimit="10" stroke-linecap="round" stroke-linejoin="round"/>
<path d="M228.139 296.901H219.565L217.723 281.743H229.981L228.139 296.901Z" stroke="black" stroke-miterlimit="10" stroke-linecap="round" stroke-linejoin="round"/>
<path d="M230.266 280.123H217.437V281.732H230.266V280.123Z" stroke="black" stroke-miterlimit="10" stroke-linecap="round" stroke-linejoin="round"/>
<path d="M221.354 280.028H212.769L210.927 264.859H223.195L221.354 280.028Z" stroke="black" stroke-miterlimit="10" stroke-linecap="round" stroke-linejoin="round"/>
<path d="M223.481 263.25H210.652V264.859H223.481V263.25Z" stroke="black" stroke-miterlimit="10" stroke-linecap="round" stroke-linejoin="round"/>
<path d="M241.836 296.901H233.251L231.409 281.743H243.667L241.836 296.901Z" stroke="black" stroke-miterlimit="10" stroke-linecap="round" stroke-linejoin="round"/>
<path d="M243.953 280.123H231.124V281.732H243.953V280.123Z" stroke="black" stroke-miterlimit="10" stroke-linecap="round" stroke-linejoin="round"/>
<path d="M235.04 280.028H226.455L224.614 264.859H236.882L235.04 280.028Z" stroke="black" stroke-miterlimit="10" stroke-linecap="round" stroke-linejoin="round"/>
<path d="M237.168 263.25H224.339V264.859H237.168V263.25Z" stroke="black" stroke-miterlimit="10" stroke-linecap="round" stroke-linejoin="round"/>
<path d="M255.523 296.901H246.938L245.096 281.743H257.354L255.523 296.901Z" stroke="black" stroke-miterlimit="10" stroke-linecap="round" stroke-linejoin="round"/>
<path d="M257.64 280.123H244.81V281.732H257.64V280.123Z" stroke="black" stroke-miterlimit="10" stroke-linecap="round" stroke-linejoin="round"/>
<path d="M248.727 280.028H240.142L238.311 264.859H250.569L248.727 280.028Z" stroke="black" stroke-miterlimit="10" stroke-linecap="round" stroke-linejoin="round"/>
<path d="M250.855 263.25H238.025V264.859H250.855V263.25Z" stroke="black" stroke-miterlimit="10" stroke-linecap="round" stroke-linejoin="round"/>
<path d="M421.129 93.653H406.448L403.304 78.4949H424.273L421.129 93.653Z" stroke="black" stroke-miterlimit="10" stroke-linecap="round" stroke-linejoin="round"/>
<path d="M424.75 76.8859H402.817V78.4948H424.75V76.8859Z" stroke="black" stroke-miterlimit="10" stroke-linecap="round" stroke-linejoin="round"/>
<path d="M447.021 76.8964H432.35L429.195 61.7383H450.165L447.021 76.8964Z" stroke="black" stroke-miterlimit="10" stroke-linecap="round" stroke-linejoin="round"/>
<path d="M450.652 60.1294H428.719V61.7384H450.652V60.1294Z" stroke="black" stroke-miterlimit="10" stroke-linecap="round" stroke-linejoin="round"/>
<path d="M447.021 93.653H432.35L429.195 78.4949H450.165L447.021 93.653Z" stroke="black" stroke-miterlimit="10" stroke-linecap="round" stroke-linejoin="round"/>
<path d="M450.652 76.8859H428.719V78.4948H450.652V76.8859Z" stroke="black" stroke-miterlimit="10" stroke-linecap="round" stroke-linejoin="round"/>
<path d="M24.912 148.897H10.2303L7.08643 133.739H28.0558L24.912 148.897Z" stroke="black" stroke-miterlimit="10" stroke-linecap="round" stroke-linejoin="round"/>
<path d="M28.5428 132.12H6.61011V133.729H28.5428V132.12Z" stroke="black" stroke-miterlimit="10" stroke-linecap="round" stroke-linejoin="round"/>
<path d="M24.912 165.654H10.2303L7.08643 150.496H28.0558L24.912 165.654Z" stroke="black" stroke-miterlimit="10" stroke-linecap="round" stroke-linejoin="round"/>
<path d="M28.5428 148.876H6.61011V150.485H28.5428V148.876Z" stroke="black" stroke-miterlimit="10" stroke-linecap="round" stroke-linejoin="round"/>
<path d="M50.8037 148.897H36.1325L32.9886 133.739H53.9475L50.8037 148.897Z" stroke="black" stroke-miterlimit="10" stroke-linecap="round" stroke-linejoin="round"/>
<path d="M54.4344 132.12H32.5017V133.729H54.4344V132.12Z" stroke="black" stroke-miterlimit="10" stroke-linecap="round" stroke-linejoin="round"/>
<path d="M50.8037 165.654H36.1325L32.9886 150.496H53.9475L50.8037 165.654Z" stroke="black" stroke-miterlimit="10" stroke-linecap="round" stroke-linejoin="round"/>
<path d="M54.4344 148.876H32.5017V150.485H54.4344V148.876Z" stroke="black" stroke-miterlimit="10" stroke-linecap="round" stroke-linejoin="round"/>
<path d="M76.6953 148.897H62.0241L58.8802 133.739H79.8391L76.6953 148.897Z" stroke="black" stroke-miterlimit="10" stroke-linecap="round" stroke-linejoin="round"/>
<path d="M80.326 132.12H58.3933V133.729H80.326V132.12Z" stroke="black" stroke-miterlimit="10" stroke-linecap="round" stroke-linejoin="round"/>
<path d="M76.6953 165.654H62.0241L58.8802 150.496H79.8391L76.6953 165.654Z" stroke="black" stroke-miterlimit="10" stroke-linecap="round" stroke-linejoin="round"/>
<path d="M80.326 148.876H58.3933V150.485H80.326V148.876Z" stroke="black" stroke-miterlimit="10" stroke-linecap="round" stroke-linejoin="round"/>
<path d="M103.402 148.897H88.7201L85.5763 133.739H106.546L103.402 148.897Z" stroke="black" stroke-miterlimit="10" stroke-linecap="round" stroke-linejoin="round"/>
<path d="M107.033 132.12H85.1V133.729H107.033V132.12Z" stroke="black" stroke-miterlimit="10" stroke-linecap="round" stroke-linejoin="round"/>
<path d="M103.402 165.654H88.7201L85.5763 150.496H106.546L103.402 165.654Z" stroke="black" stroke-miterlimit="10" stroke-linecap="round" stroke-linejoin="round"/>
<path d="M107.033 148.876H85.1V150.485H107.033V148.876Z" stroke="black" stroke-miterlimit="10" stroke-linecap="round" stroke-linejoin="round"/>
<path d="M129.293 148.897H114.622L111.478 133.739H132.437L129.293 148.897Z" stroke="black" stroke-miterlimit="10" stroke-linecap="round" stroke-linejoin="round"/>
<path d="M132.924 132.12H110.992V133.729H132.924V132.12Z" stroke="black" stroke-miterlimit="10" stroke-linecap="round" stroke-linejoin="round"/>
<path d="M129.293 165.654H114.622L111.478 150.496H132.437L129.293 165.654Z" stroke="black" stroke-miterlimit="10" stroke-linecap="round" stroke-linejoin="round"/>
<path d="M132.924 148.876H110.992V150.485H132.924V148.876Z" stroke="black" stroke-miterlimit="10" stroke-linecap="round" stroke-linejoin="round"/>
<path d="M155.196 148.897H140.514L137.37 133.739H158.339L155.196 148.897Z" stroke="black" stroke-miterlimit="10" stroke-linecap="round" stroke-linejoin="round"/>
<path d="M158.816 132.12H136.883V133.729H158.816V132.12Z" stroke="black" stroke-miterlimit="10" stroke-linecap="round" stroke-linejoin="round"/>
<path d="M155.196 165.654H140.514L137.37 150.496H158.339L155.196 165.654Z" stroke="black" stroke-miterlimit="10" stroke-linecap="round" stroke-linejoin="round"/>
<path d="M158.816 148.876H136.883V150.485H158.816V148.876Z" stroke="black" stroke-miterlimit="10" stroke-linecap="round" stroke-linejoin="round"/>
<path d="M204.057 115.533H163.96V165.972H204.057V115.533Z" stroke="black" stroke-miterlimit="10" stroke-linecap="round" stroke-linejoin="round"/>
<path d="M200.606 147.437H167.411V159.938H200.606V147.437Z" stroke="black" stroke-miterlimit="10" stroke-linecap="round" stroke-linejoin="round"/>
<path d="M185.085 134.942C188.537 131.49 188.537 125.894 185.085 122.442C181.633 118.991 176.037 118.991 172.585 122.442C169.134 125.894 169.134 131.49 172.585 134.942C176.037 138.394 181.633 138.394 185.085 134.942Z" stroke="black" stroke-miterlimit="10" stroke-linecap="round" stroke-linejoin="round"/>
<path d="M193.927 143.986C196.19 143.986 198.024 142.152 198.024 139.889C198.024 137.627 196.19 135.793 193.927 135.793C191.665 135.793 189.831 137.627 189.831 139.889C189.831 142.152 191.665 143.986 193.927 143.986Z" stroke="black" stroke-miterlimit="10" stroke-linecap="round" stroke-linejoin="round"/>
<path d="M247.171 115.533H207.074V165.972H247.171V115.533Z" stroke="black" stroke-miterlimit="10" stroke-linecap="round" stroke-linejoin="round"/>
<path d="M243.72 147.437H210.525V159.938H243.72V147.437Z" stroke="black" stroke-miterlimit="10" stroke-linecap="round" stroke-linejoin="round"/>
<path d="M230.567 130.72C231.693 125.97 228.755 121.206 224.005 120.081C219.254 118.955 214.491 121.893 213.365 126.643C212.24 131.393 215.178 136.157 219.928 137.282C224.678 138.408 229.442 135.47 230.567 130.72Z" stroke="black" stroke-miterlimit="10" stroke-linecap="round" stroke-linejoin="round"/>
<path d="M237.041 143.986C239.303 143.986 241.137 142.152 241.137 139.889C241.137 137.627 239.303 135.793 237.041 135.793C234.779 135.793 232.944 137.627 232.944 139.889C232.944 142.152 234.779 143.986 237.041 143.986Z" stroke="black" stroke-miterlimit="10" stroke-linecap="round" stroke-linejoin="round"/>
<path d="M290.285 115.533H250.188V165.972H290.285V115.533Z" stroke="black" stroke-miterlimit="10" stroke-linecap="round" stroke-linejoin="round"/>
<path d="M286.834 147.437H253.639V159.938H286.834V147.437Z" stroke="black" stroke-miterlimit="10" stroke-linecap="round" stroke-linejoin="round"/>
<path d="M273.68 130.715C274.805 125.964 271.867 121.201 267.117 120.075C262.367 118.95 257.604 121.888 256.478 126.638C255.352 131.388 258.29 136.152 263.041 137.277C267.791 138.403 272.554 135.465 273.68 130.715Z" stroke="black" stroke-miterlimit="10" stroke-linecap="round" stroke-linejoin="round"/>
<path d="M284.241 139.889C284.241 142.155 282.409 143.986 280.144 143.986C277.879 143.986 276.048 142.155 276.048 139.889C276.048 137.624 277.879 135.793 280.144 135.793C282.409 135.804 284.241 137.635 284.241 139.889Z" stroke="black" stroke-miterlimit="10" stroke-linecap="round" stroke-linejoin="round"/>
<path d="M333.388 115.533H293.291V165.972H333.388V115.533Z" stroke="black" stroke-miterlimit="10" stroke-linecap="round" stroke-linejoin="round"/>
<path d="M329.937 147.437H296.742V159.938H329.937V147.437Z" stroke="black" stroke-miterlimit="10" stroke-linecap="round" stroke-linejoin="round"/>
<path d="M311.538 136.878C316.052 135.02 318.205 129.854 316.347 125.34C314.488 120.826 309.323 118.674 304.809 120.532C300.295 122.39 298.142 127.556 300 132.07C301.859 136.584 307.025 138.737 311.538 136.878Z" stroke="black" stroke-miterlimit="10" stroke-linecap="round" stroke-linejoin="round"/>
<path d="M327.354 139.889C327.354 142.155 325.523 143.986 323.258 143.986C320.993 143.986 319.161 142.155 319.161 139.889C319.161 137.624 320.993 135.793 323.258 135.793C325.523 135.804 327.354 137.635 327.354 139.889Z" stroke="black" stroke-miterlimit="10" stroke-linecap="round" stroke-linejoin="round"/>
<path d="M376.502 115.533H336.405V165.972H376.502V115.533Z" stroke="black" stroke-miterlimit="10" stroke-linecap="round" stroke-linejoin="round"/>
<path d="M373.051 147.437H339.856V159.938H373.051V147.437Z" stroke="black" stroke-miterlimit="10" stroke-linecap="round" stroke-linejoin="round"/>
<path d="M357.528 134.942C360.98 131.49 360.98 125.894 357.528 122.442C354.076 118.99 348.48 118.99 345.028 122.442C341.576 125.894 341.576 131.49 345.028 134.942C348.48 138.393 354.076 138.393 357.528 134.942Z" stroke="black" stroke-miterlimit="10" stroke-linecap="round" stroke-linejoin="round"/>
<path d="M366.372 143.986C368.634 143.986 370.468 142.152 370.468 139.889C370.468 137.627 368.634 135.793 366.372 135.793C364.109 135.793 362.275 137.627 362.275 139.889C362.275 142.152 364.109 143.986 366.372 143.986Z" stroke="black" stroke-miterlimit="10" stroke-linecap="round" stroke-linejoin="round"/>
<path d="M409.263 123.726H384.261V165.548H409.263V123.726Z" stroke="black" stroke-miterlimit="10" stroke-linecap="round" stroke-linejoin="round"/>
<path d="M384.261 123.726L389.86 118.126H404.087L409.263 123.726H384.261Z" stroke="black" stroke-miterlimit="10" stroke-linecap="round" stroke-linejoin="round"/>
<path d="M403.928 114.675H389.86V118.126H403.928V114.675Z" stroke="black" stroke-miterlimit="10" stroke-linecap="round" stroke-linejoin="round"/>
<path d="M439.929 123.726H414.926V165.548H439.929V123.726Z" stroke="black" stroke-miterlimit="10" stroke-linecap="round" stroke-linejoin="round"/>
<path d="M414.926 123.726L420.526 118.126H434.753L439.929 123.726H414.926Z" stroke="black" stroke-miterlimit="10" stroke-linecap="round" stroke-linejoin="round"/>
<path d="M434.594 114.675H420.526V118.126H434.594V114.675Z" stroke="black" stroke-miterlimit="10" stroke-linecap="round" stroke-linejoin="round"/>
<path d="M31.7713 196.298H6.76892V238.121H31.7713V196.298Z" stroke="black" stroke-miterlimit="10" stroke-linecap="round" stroke-linejoin="round"/>
<path d="M6.76892 196.298L12.3791 190.699H26.6057L31.7713 196.298H6.76892Z" stroke="black" stroke-miterlimit="10" stroke-linecap="round" stroke-linejoin="round"/>
<path d="M26.4469 187.248H12.379V190.699H26.4469V187.248Z" stroke="black" stroke-miterlimit="10" stroke-linecap="round" stroke-linejoin="round"/>
<path d="M62.4369 196.298H37.4344V238.121H62.4369V196.298Z" stroke="black" stroke-miterlimit="10" stroke-linecap="round" stroke-linejoin="round"/>
<path d="M37.4344 196.298L43.0341 190.699H57.2607L62.4369 196.298H37.4344Z" stroke="black" stroke-miterlimit="10" stroke-linecap="round" stroke-linejoin="round"/>
<path d="M57.1019 187.248H43.0341V190.699H57.1019V187.248Z" stroke="black" stroke-miterlimit="10" stroke-linecap="round" stroke-linejoin="round"/>
<path d="M93.1024 196.298H68.1V238.121H93.1024V196.298Z" stroke="black" stroke-miterlimit="10" stroke-linecap="round" stroke-linejoin="round"/>
<path d="M68.1 196.298L73.6996 190.699H87.9262L93.1024 196.298H68.1Z" stroke="black" stroke-miterlimit="10" stroke-linecap="round" stroke-linejoin="round"/>
<path d="M87.7674 187.248H73.6996V190.699H87.7674V187.248Z" stroke="black" stroke-miterlimit="10" stroke-linecap="round" stroke-linejoin="round"/>
<path d="M123.768 196.298H98.7655V238.121H123.768V196.298Z" stroke="black" stroke-miterlimit="10" stroke-linecap="round" stroke-linejoin="round"/>
<path d="M98.7655 196.298L104.365 190.699H118.592L123.768 196.298H98.7655Z" stroke="black" stroke-miterlimit="10" stroke-linecap="round" stroke-linejoin="round"/>
<path d="M118.433 187.248H104.365V190.699H118.433V187.248Z" stroke="black" stroke-miterlimit="10" stroke-linecap="round" stroke-linejoin="round"/>
<path d="M154.423 196.298H129.42V238.121H154.423V196.298Z" stroke="black" stroke-miterlimit="10" stroke-linecap="round" stroke-linejoin="round"/>
<path d="M129.42 196.298L135.031 190.699H149.257L154.433 196.298H129.42Z" stroke="black" stroke-miterlimit="10" stroke-linecap="round" stroke-linejoin="round"/>
<path d="M149.098 187.248H135.031V190.699H149.098V187.248Z" stroke="black" stroke-miterlimit="10" stroke-linecap="round" stroke-linejoin="round"/>
<path d="M185.088 196.298H160.086V238.121H185.088V196.298Z" stroke="black" stroke-miterlimit="10" stroke-linecap="round" stroke-linejoin="round"/>
<path d="M160.086 196.298L165.696 190.699H179.923L185.099 196.298H160.086Z" stroke="black" stroke-miterlimit="10" stroke-linecap="round" stroke-linejoin="round"/>
<path d="M179.764 187.248H165.696V190.699H179.764V187.248Z" stroke="black" stroke-miterlimit="10" stroke-linecap="round" stroke-linejoin="round"/>
<path d="M215.754 196.298H190.752V238.121H215.754V196.298Z" stroke="black" stroke-miterlimit="10" stroke-linecap="round" stroke-linejoin="round"/>
<path d="M190.752 196.298L196.362 190.699H210.588L215.754 196.298H190.752Z" stroke="black" stroke-miterlimit="10" stroke-linecap="round" stroke-linejoin="round"/>
<path d="M210.43 187.248H196.362V190.699H210.43V187.248Z" stroke="black" stroke-miterlimit="10" stroke-linecap="round" stroke-linejoin="round"/>
<path d="M246.419 196.298H221.417V238.121H246.419V196.298Z" stroke="black" stroke-miterlimit="10" stroke-linecap="round" stroke-linejoin="round"/>
<path d="M221.417 196.298L227.017 190.699H241.243L246.419 196.298H221.417Z" stroke="black" stroke-miterlimit="10" stroke-linecap="round" stroke-linejoin="round"/>
<path d="M241.085 187.248H227.017V190.699H241.085V187.248Z" stroke="black" stroke-miterlimit="10" stroke-linecap="round" stroke-linejoin="round"/>
<path d="M311.297 274.852H270.628V313.636H311.297V274.852Z" stroke="black" stroke-miterlimit="10" stroke-linecap="round" stroke-linejoin="round"/>
<path d="M282.759 283.235H274.343V293.651H282.759V283.235Z" stroke="black" stroke-miterlimit="10" stroke-linecap="round" stroke-linejoin="round"/>
<path d="M308.005 280.832H291.174V310.482H308.005V280.832Z" stroke="black" stroke-miterlimit="10" stroke-linecap="round" stroke-linejoin="round"/>
<path d="M285.564 301.262H277.551V306.872H285.564V301.262Z" stroke="black" stroke-miterlimit="10" stroke-linecap="round" stroke-linejoin="round"/>
<path d="M354.971 274.852H314.303V313.636H354.971V274.852Z" stroke="black" stroke-miterlimit="10" stroke-linecap="round" stroke-linejoin="round"/>
<path d="M326.444 283.235H318.029V293.651H326.444V283.235Z" stroke="black" stroke-miterlimit="10" stroke-linecap="round" stroke-linejoin="round"/>
<path d="M351.69 280.832H334.859V310.482H351.69V280.832Z" stroke="black" stroke-miterlimit="10" stroke-linecap="round" stroke-linejoin="round"/>
<path d="M329.249 301.262H321.236V306.872H329.249V301.262Z" stroke="black" stroke-miterlimit="10" stroke-linecap="round" stroke-linejoin="round"/>
<path d="M398.646 274.852H357.978V313.636H398.646V274.852Z" stroke="black" stroke-miterlimit="10" stroke-linecap="round" stroke-linejoin="round"/>
<path d="M370.119 283.235H361.704V293.651H370.119V283.235Z" stroke="black" stroke-miterlimit="10" stroke-linecap="round" stroke-linejoin="round"/>
<path d="M395.365 280.832H378.534V310.482H395.365V280.832Z" stroke="black" stroke-miterlimit="10" stroke-linecap="round" stroke-linejoin="round"/>
<path d="M372.924 301.262H364.911V306.872H372.924V301.262Z" stroke="black" stroke-miterlimit="10" stroke-linecap="round" stroke-linejoin="round"/>
<path d="M442.332 274.852H401.663V313.636H442.332V274.852Z" stroke="black" stroke-miterlimit="10" stroke-linecap="round" stroke-linejoin="round"/>
<path d="M413.794 283.235H405.379V293.651H413.794V283.235Z" stroke="black" stroke-miterlimit="10" stroke-linecap="round" stroke-linejoin="round"/>
<path d="M439.04 280.832H422.209V310.482H439.04V280.832Z" stroke="black" stroke-miterlimit="10" stroke-linecap="round" stroke-linejoin="round"/>
<path d="M416.599 301.262H408.586V306.872H416.599V301.262Z" stroke="black" stroke-miterlimit="10" stroke-linecap="round" stroke-linejoin="round"/>
</g>
</svg>
