<svg width="805" height="570" viewBox="0 0 805 570" fill="none" xmlns="http://www.w3.org/2000/svg">
<path d="M497.553 296.16C570.629 245.76 589.276 146.054 539.203 73.4526C489.13 0.851601 389.304 -17.1449 316.228 33.2551C243.153 83.6552 224.506 183.362 274.579 255.963C279.512 263.115 284.924 269.696 290.749 275.751L253.798 329.903L322.847 301.47C375.162 333.294 443.609 333.365 497.553 296.16Z" fill="#101410"/>
<path d="M474.808 200.499C474.808 212.924 470.316 223.703 461.334 232.835C452.502 241.817 439.627 247.581 422.71 250.126V275.052H395.763V251.024C384.535 250.275 373.906 248.404 363.876 245.41C353.846 242.266 345.537 238.449 338.95 233.958L353.546 201.172C360.583 205.813 368.742 209.556 378.023 212.4C387.305 215.244 396.437 216.667 405.419 216.667C422.486 216.667 431.019 212.4 431.019 203.867C431.019 199.376 428.549 196.082 423.608 193.986C418.818 191.741 411.033 189.42 400.254 187.025C388.428 184.48 378.547 181.785 370.613 178.941C362.678 175.947 355.867 171.231 350.178 164.794C344.489 158.357 341.645 149.674 341.645 138.745C341.645 125.87 346.286 114.867 355.567 105.735C364.849 96.4534 378.248 90.7646 395.763 88.6688V63.9674H422.71V88.2196C431.243 88.9682 439.402 90.4652 447.187 92.7108C455.121 94.9564 462.158 97.8756 468.295 101.469L454.597 134.479C439.627 126.394 425.106 122.352 411.033 122.352C402.201 122.352 395.763 123.7 391.721 126.394C387.679 128.939 385.658 132.308 385.658 136.5C385.658 140.691 388.053 143.835 392.844 145.931C397.635 148.027 405.344 150.198 415.974 152.443C427.95 154.988 437.83 157.758 445.615 160.752C453.55 163.596 460.361 168.237 466.05 174.674C471.888 180.962 474.808 189.57 474.808 200.499Z" fill="white"/>
<path d="M136.112 526.071C115.437 526.071 96.8115 521.803 80.2345 513.267C63.6575 504.545 50.6194 492.482 41.1203 477.079C31.8073 461.491 27.1509 443.861 27.1509 424.19C27.1509 404.519 31.8073 386.982 41.1203 371.579C50.6194 355.991 63.6575 343.928 80.2345 335.392C96.8115 326.67 115.437 322.309 136.112 322.309C155.11 322.309 172.06 325.649 186.961 332.33C201.861 339.011 214.154 348.661 223.84 361.28L182.211 398.302C170.104 383.085 155.855 375.476 139.465 375.476C125.682 375.476 114.599 379.93 106.218 388.838C97.8359 397.56 93.6451 409.344 93.6451 424.19C93.6451 439.036 97.8359 450.913 106.218 459.821C114.599 468.543 125.682 472.904 139.465 472.904C155.855 472.904 170.104 465.295 182.211 450.078L223.84 487.1C214.154 499.72 201.861 509.37 186.961 516.05C172.06 522.731 155.11 526.071 136.112 526.071Z" fill="#101410"/>
<path d="M309.372 366.569C336.193 366.569 356.681 372.6 370.837 384.662C384.992 396.539 392.07 414.911 392.07 439.779V521.618H333.399V501.575C326.135 516.793 311.7 524.401 290.094 524.401C277.987 524.401 267.65 522.36 259.082 518.277C250.7 514.009 244.274 508.349 239.804 501.297C235.52 494.06 233.378 485.987 233.378 477.079C233.378 462.048 239.152 450.635 250.7 442.841C262.248 435.046 279.757 431.149 303.225 431.149H328.649C326.6 419.272 317.008 413.334 299.872 413.334C292.981 413.334 285.996 414.447 278.918 416.674C271.841 418.716 265.787 421.592 260.758 425.304L240.642 383.827C249.396 378.446 259.92 374.27 272.213 371.301C284.692 368.146 297.079 366.569 309.372 366.569ZM309.092 486.544C313.562 486.544 317.567 485.337 321.106 482.925C324.645 480.512 327.252 476.894 328.929 472.069V461.491H313.283C300.431 461.491 294.005 465.759 294.005 474.296C294.005 477.822 295.309 480.791 297.917 483.203C300.711 485.43 304.436 486.544 309.092 486.544Z" fill="#101410"/>
<path d="M591.117 315.071V521.618H531.048V509.091C521.922 519.298 507.952 524.401 489.14 524.401C475.729 524.401 463.343 521.246 451.982 514.937C440.806 508.442 431.866 499.163 425.16 487.1C418.641 475.038 415.382 461.12 415.382 445.346C415.382 429.572 418.641 415.746 425.16 403.87C431.866 391.807 440.806 382.621 451.982 376.312C463.343 369.816 475.729 366.569 489.14 366.569C506.09 366.569 519.035 370.93 527.975 379.652V315.071H591.117ZM504.227 475.409C511.491 475.409 517.451 472.811 522.108 467.615C526.764 462.233 529.092 454.81 529.092 445.346C529.092 435.881 526.764 428.551 522.108 423.355C517.451 418.159 511.491 415.561 504.227 415.561C496.963 415.561 491.003 418.159 486.346 423.355C481.69 428.551 479.361 435.881 479.361 445.346C479.361 454.81 481.69 462.233 486.346 467.615C491.003 472.811 496.963 475.409 504.227 475.409Z" fill="#101410"/>
<path d="M786.151 369.352V521.618H726.082V507.143C720.495 512.896 713.976 517.257 706.525 520.226C699.075 523.009 691.159 524.401 682.777 524.401C663.407 524.401 647.854 518.556 636.12 506.864C624.385 494.987 618.518 477.172 618.518 453.418V369.352H681.66V442.562C681.66 452.954 683.336 460.377 686.689 464.831C690.042 469.285 694.977 471.512 701.496 471.512C707.643 471.512 712.765 469.1 716.863 464.275C720.96 459.264 723.009 451.47 723.009 440.892V369.352H786.151Z" fill="#101410"/>
<path d="M78.2795 256.744L112.229 314.624L106.36 318.068L79.2002 271.764L79.3104 324.05L76.4171 325.747L30.986 300.391L58.0004 346.447L52.1311 349.891L18.1813 292.011L23.2239 289.052L73.5257 317.219L73.2369 259.703L78.2795 256.744Z" fill="#101410"/>
<path d="M165.718 291.959L123.602 289.801C123.717 295.055 125.51 299.402 128.98 302.844C132.454 306.221 136.967 308.052 142.518 308.337C145.645 308.497 148.544 308.102 151.216 307.151C153.891 306.136 156.242 304.592 158.267 302.52L161.87 307.12C159.5 309.687 156.587 311.585 153.133 312.816C149.743 314.05 146.038 314.565 142.018 314.359C136.849 314.094 132.31 312.773 128.401 310.397C124.559 307.961 121.621 304.738 119.587 300.731C117.553 296.723 116.662 292.261 116.914 287.347C117.166 282.432 118.444 278.082 120.749 274.296C123.118 270.514 126.209 267.633 130.021 265.652C133.897 263.675 138.164 262.806 142.822 263.045C147.481 263.283 151.605 264.582 155.195 266.942C158.785 269.302 161.533 272.482 163.439 276.484C165.349 280.421 166.176 284.879 165.921 289.858L165.718 291.959ZM142.523 268.885C137.674 268.636 133.51 269.991 130.031 272.948C126.62 275.845 124.563 279.771 123.862 284.727L159.564 286.556C159.373 281.555 157.696 277.437 154.535 274.204C151.441 270.909 147.437 269.136 142.523 268.885Z" fill="#101410"/>
<path d="M200.446 291.068C203.539 288.957 206.872 287.951 210.445 288.05C214.074 288.182 217.898 289.429 221.92 291.793L218.569 297.496L217.213 296.587C212.641 293.9 208.235 293.2 203.994 294.488C199.754 295.776 196.145 298.955 193.167 304.024L180.152 326.174L174.285 322.725L199.829 279.252L205.447 282.555L200.446 291.068Z" fill="#101410"/>
</svg>
