<svg width="626" height="618" viewBox="0 0 626 618" fill="none" xmlns="http://www.w3.org/2000/svg">
<path d="M572.992 209.129C571.011 164.307 552.656 121.563 525.686 88.9749C509.908 69.9105 491.116 53.3681 470.763 40.6695C449.64 27.4894 426.663 12.7083 401.609 11.127C395.426 10.7361 389.112 11.2198 383.084 13.288C360.006 21.2097 406.879 45.3249 413.018 48.875C347.723 22.442 280.154 -4.3752 209.805 0.600436C196.241 1.56001 182.21 3.89876 170.507 12.0711C158.803 20.2435 150.019 35.5657 152.248 50.4043C154.091 62.6701 162.553 76.1703 155.299 86.0344C153.226 88.8546 150.217 90.5794 147.256 92.0877C132.069 99.8261 115.55 104.158 101.235 113.843C79.0658 128.842 64.4359 155.567 58.123 183.398C51.8102 211.229 53.0325 240.222 56.6908 268.211C63.5746 320.885 79.5251 372.851 109.836 413.019C153.131 470.394 222.099 498.122 290.424 500.875C373.1 504.207 461.595 470.126 513.953 396.109C521.718 385.131 528.777 373.018 531.312 359.48C533.848 345.943 531.052 330.698 521.728 322.158C519.214 319.856 515.997 317.434 516.15 313.732C516.357 308.725 522.112 306.85 526.507 305.66C555.336 297.852 570.839 260.911 572.841 228.068C573.226 221.727 573.27 215.408 572.992 209.129Z" fill="#33B633"/>
<path opacity="0.7" d="M572.992 209.129C571.011 164.307 552.656 121.563 525.686 88.9749C509.908 69.9105 491.116 53.3681 470.763 40.6695C449.64 27.4894 426.663 12.7083 401.609 11.127C395.426 10.7361 389.112 11.2198 383.084 13.288C360.006 21.2097 406.879 45.3249 413.018 48.875C347.723 22.442 280.154 -4.3752 209.805 0.600436C196.241 1.56001 182.21 3.89876 170.507 12.0711C158.803 20.2435 150.019 35.5657 152.248 50.4043C154.091 62.6701 162.553 76.1703 155.299 86.0344C153.226 88.8546 150.217 90.5794 147.256 92.0877C132.069 99.8261 115.55 104.158 101.235 113.843C79.0658 128.842 64.4359 155.567 58.123 183.398C51.8102 211.229 53.0325 240.222 56.6908 268.211C63.5746 320.885 79.5251 372.851 109.836 413.019C153.131 470.394 222.099 498.122 290.424 500.875C373.1 504.207 461.595 470.126 513.953 396.109C521.718 385.131 528.777 373.018 531.312 359.48C533.848 345.943 531.052 330.698 521.728 322.158C519.214 319.856 515.997 317.434 516.15 313.732C516.357 308.725 522.112 306.85 526.507 305.66C555.336 297.852 570.839 260.911 572.841 228.068C573.226 221.727 573.27 215.408 572.992 209.129Z" fill="white"/>
<path d="M194.129 566.91V459.083H431.522" stroke="#969696" stroke-miterlimit="10" stroke-linecap="round" stroke-linejoin="round"/>
<path d="M433.928 566.479V459.083" stroke="#969696" stroke-miterlimit="10" stroke-linecap="round" stroke-linejoin="round"/>
<path d="M180.659 456.633H77.1662V306.275C77.1662 277.697 100.334 254.528 128.913 254.528C157.491 254.528 180.659 277.695 180.659 306.275V456.633Z" stroke="#969696" stroke-miterlimit="10" stroke-linecap="round" stroke-linejoin="round"/>
<path d="M88.2833 306.275H180.477" stroke="#969696" stroke-miterlimit="10" stroke-linecap="round" stroke-linejoin="round"/>
<path d="M126.421 316.629H96.5545V420.377H126.421V316.629Z" stroke="#969696" stroke-miterlimit="10" stroke-linecap="round" stroke-linejoin="round"/>
<path d="M173.58 316.629H143.713V420.377H173.58V316.629Z" stroke="#969696" stroke-miterlimit="10" stroke-linecap="round" stroke-linejoin="round"/>
<path d="M126.421 428.236H96.5545V451.029H126.421V428.236Z" stroke="#969696" stroke-miterlimit="10" stroke-linecap="round" stroke-linejoin="round"/>
<path d="M173.58 428.236H143.713V451.029H173.58V428.236Z" stroke="#969696" stroke-miterlimit="10" stroke-linecap="round" stroke-linejoin="round"/>
<path d="M135.067 307.197V455.741" stroke="#969696" stroke-miterlimit="10" stroke-linecap="round" stroke-linejoin="round"/>
<path d="M88.4638 456.633V306.275C88.4638 280.15 107.825 258.546 132.982 255.029" stroke="#969696" stroke-miterlimit="10" stroke-linecap="round" stroke-linejoin="round"/>
<path d="M191.159 459.193H60.6563V470.266H191.159V459.193Z" stroke="#969696" stroke-miterlimit="10" stroke-linecap="round" stroke-linejoin="round"/>
<path d="M195.832 456.866H55.9841C55.3718 456.866 54.8759 457.362 54.8759 457.975C54.8759 458.587 55.3718 459.083 55.9841 459.083H195.832C196.444 459.083 196.942 458.587 196.942 457.975C196.942 457.363 196.444 456.866 195.832 456.866Z" stroke="#969696" stroke-miterlimit="10" stroke-linecap="round" stroke-linejoin="round"/>
<path d="M187.401 472.65H56.8985V483.722H187.401V472.65Z" stroke="#969696" stroke-miterlimit="10" stroke-linecap="round" stroke-linejoin="round"/>
<path d="M192.075 470.322H52.2252C51.6129 470.322 51.117 470.818 51.117 471.43C51.117 472.043 51.6129 472.538 52.2252 472.538H192.075C192.687 472.538 193.183 472.043 193.183 471.43C193.183 470.819 192.687 470.322 192.075 470.322Z" stroke="#969696" stroke-miterlimit="10" stroke-linecap="round" stroke-linejoin="round"/>
<path d="M183.644 486.107H53.1411V497.18H183.644V486.107Z" stroke="#969696" stroke-miterlimit="10" stroke-linecap="round" stroke-linejoin="round"/>
<path d="M188.317 483.78H48.4677C47.8554 483.78 47.3595 484.276 47.3595 484.888C47.3595 485.5 47.8554 485.996 48.4677 485.996H188.317C188.929 485.996 189.425 485.5 189.425 484.888C189.425 484.276 188.929 483.78 188.317 483.78Z" stroke="#969696" stroke-miterlimit="10" stroke-linecap="round" stroke-linejoin="round"/>
<path d="M179.886 499.564H49.3833V510.636H179.886V499.564Z" stroke="#969696" stroke-miterlimit="10" stroke-linecap="round" stroke-linejoin="round"/>
<path d="M184.558 497.236H44.71C44.0977 497.236 43.6019 497.732 43.6019 498.344C43.6019 498.957 44.0977 499.454 44.7113 499.454H184.559C185.172 499.454 185.669 498.957 185.669 498.344C185.668 497.732 185.17 497.236 184.558 497.236Z" stroke="#969696" stroke-miterlimit="10" stroke-linecap="round" stroke-linejoin="round"/>
<path d="M176.127 513.02H45.6245V524.093H176.127V513.02Z" stroke="#969696" stroke-miterlimit="10" stroke-linecap="round" stroke-linejoin="round"/>
<path d="M180.801 510.693H40.9525C40.3402 510.693 39.8444 511.188 39.8444 511.801C39.8444 512.413 40.3402 512.91 40.9538 512.91H180.802C181.414 512.91 181.91 512.414 181.91 511.802C181.91 511.188 181.413 510.693 180.801 510.693Z" stroke="#969696" stroke-miterlimit="10" stroke-linecap="round" stroke-linejoin="round"/>
<path d="M172.369 526.476H41.8669V537.549H172.369V526.476Z" stroke="#969696" stroke-miterlimit="10" stroke-linecap="round" stroke-linejoin="round"/>
<path d="M177.043 524.149H37.1935C36.5812 524.149 36.0854 524.645 36.0854 525.257C36.0854 525.869 36.5812 526.367 37.1935 526.367H177.043C177.655 526.367 178.151 525.871 178.151 525.257C178.151 524.646 177.655 524.149 177.043 524.149Z" stroke="#969696" stroke-miterlimit="10" stroke-linecap="round" stroke-linejoin="round"/>
<path d="M168.612 539.933H38.1095V551.005H168.612V539.933Z" stroke="#969696" stroke-miterlimit="10" stroke-linecap="round" stroke-linejoin="round"/>
<path d="M173.285 537.605H33.436C32.8237 537.605 32.3265 538.101 32.3265 538.715C32.3265 539.327 32.8224 539.823 33.436 539.823H173.284C173.896 539.823 174.392 539.327 174.392 538.715C174.394 538.102 173.896 537.605 173.285 537.605Z" stroke="#969696" stroke-miterlimit="10" stroke-linecap="round" stroke-linejoin="round"/>
<path d="M164.853 553.391H34.3507V564.463H164.853V553.391Z" stroke="#969696" stroke-miterlimit="10" stroke-linecap="round" stroke-linejoin="round"/>
<path d="M169.527 551.063H29.6785C29.0662 551.063 28.5703 551.559 28.5703 552.171C28.5703 552.783 29.0675 553.279 29.6785 553.279H169.527C170.139 553.279 170.635 552.783 170.635 552.171C170.636 551.559 170.139 551.063 169.527 551.063Z" stroke="#969696" stroke-miterlimit="10" stroke-linecap="round" stroke-linejoin="round"/>
<path d="M161.095 566.847H30.5929V577.919H161.095V566.847Z" stroke="#969696" stroke-miterlimit="10" stroke-linecap="round" stroke-linejoin="round"/>
<path d="M165.769 564.519H25.9195C25.3072 564.519 24.8113 565.015 24.8113 565.629C24.8113 566.241 25.3072 566.737 25.9195 566.737H165.769C166.381 566.737 166.877 566.241 166.877 565.629C166.877 565.015 166.381 564.519 165.769 564.519Z" stroke="#969696" stroke-miterlimit="10" stroke-linecap="round" stroke-linejoin="round"/>
<path d="M161.095 580.303H30.5929V591.376H161.095V580.303Z" stroke="#969696" stroke-miterlimit="10" stroke-linecap="round" stroke-linejoin="round"/>
<path d="M165.769 577.976H25.9195C25.3072 577.976 24.8113 578.472 24.8113 579.085C24.8113 579.698 25.3072 580.193 25.9195 580.193H165.769C166.381 580.193 166.877 579.698 166.877 579.085C166.877 578.472 166.381 577.976 165.769 577.976Z" stroke="#969696" stroke-miterlimit="10" stroke-linecap="round" stroke-linejoin="round"/>
<path d="M71.9105 414.86H55.9291L16.9207 547.98" stroke="#969696" stroke-miterlimit="10" stroke-linecap="round" stroke-linejoin="round"/>
<path d="M68.6726 416.368V457.354" stroke="#969696" stroke-miterlimit="10" stroke-linecap="round" stroke-linejoin="round"/>
<path d="M62.887 415.403V455.907" stroke="#969696" stroke-miterlimit="10" stroke-linecap="round" stroke-linejoin="round"/>
<path d="M57.4729 415.403V455.907" stroke="#969696" stroke-miterlimit="10" stroke-linecap="round" stroke-linejoin="round"/>
<path d="M52.6961 426.549V470.322" stroke="#969696" stroke-miterlimit="10" stroke-linecap="round" stroke-linejoin="round"/>
<path d="M47.9195 441.934V483.697" stroke="#969696" stroke-miterlimit="10" stroke-linecap="round" stroke-linejoin="round"/>
<path d="M44.0977 455.628V497.392" stroke="#969696" stroke-miterlimit="10" stroke-linecap="round" stroke-linejoin="round"/>
<path d="M40.2761 467.312V511.085" stroke="#969696" stroke-miterlimit="10" stroke-linecap="round" stroke-linejoin="round"/>
<path d="M36.4544 481.006V524.778" stroke="#969696" stroke-miterlimit="10" stroke-linecap="round" stroke-linejoin="round"/>
<path d="M32.634 494.699V538.473" stroke="#969696" stroke-miterlimit="10" stroke-linecap="round" stroke-linejoin="round"/>
<path d="M28.8123 508.392V552.166" stroke="#969696" stroke-miterlimit="10" stroke-linecap="round" stroke-linejoin="round"/>
<path d="M24.9905 522.087V565.859" stroke="#969696" stroke-miterlimit="10" stroke-linecap="round" stroke-linejoin="round"/>
<path d="M195.385 414.86H184.128L156.65 547.98H179.784V591.248" stroke="#969696" stroke-miterlimit="10" stroke-linecap="round" stroke-linejoin="round"/>
<path d="M193.104 416.368V457.354" stroke="#969696" stroke-miterlimit="10" stroke-linecap="round" stroke-linejoin="round"/>
<path d="M189.029 415.403V455.907" stroke="#969696" stroke-miterlimit="10" stroke-linecap="round" stroke-linejoin="round"/>
<path d="M185.215 415.403V455.907" stroke="#969696" stroke-miterlimit="10" stroke-linecap="round" stroke-linejoin="round"/>
<path d="M181.85 426.549V470.322" stroke="#969696" stroke-miterlimit="10" stroke-linecap="round" stroke-linejoin="round"/>
<path d="M178.485 441.934V483.697" stroke="#969696" stroke-miterlimit="10" stroke-linecap="round" stroke-linejoin="round"/>
<path d="M175.793 455.628V497.392" stroke="#969696" stroke-miterlimit="10" stroke-linecap="round" stroke-linejoin="round"/>
<path d="M173.102 467.312V511.085" stroke="#969696" stroke-miterlimit="10" stroke-linecap="round" stroke-linejoin="round"/>
<path d="M170.41 481.006V524.778" stroke="#969696" stroke-miterlimit="10" stroke-linecap="round" stroke-linejoin="round"/>
<path d="M167.718 494.699V538.473" stroke="#969696" stroke-miterlimit="10" stroke-linecap="round" stroke-linejoin="round"/>
<path d="M165.026 508.392V552.166" stroke="#969696" stroke-miterlimit="10" stroke-linecap="round" stroke-linejoin="round"/>
<path d="M162.334 522.087V565.859" stroke="#969696" stroke-miterlimit="10" stroke-linecap="round" stroke-linejoin="round"/>
<path d="M173.327 548.747V590.71" stroke="#969696" stroke-miterlimit="10" stroke-linecap="round" stroke-linejoin="round"/>
<path d="M447.804 456.633H551.297V306.275C551.297 277.697 528.129 254.528 499.551 254.528C470.972 254.528 447.804 277.695 447.804 306.275V456.633Z" stroke="#969696" stroke-miterlimit="10" stroke-linecap="round" stroke-linejoin="round"/>
<path d="M540 456.633V306.275C540 280.15 520.639 258.546 495.482 255.029" stroke="#969696" stroke-miterlimit="10" stroke-linecap="round" stroke-linejoin="round"/>
<path d="M447.804 306.275H540" stroke="#969696" stroke-miterlimit="10" stroke-linecap="round" stroke-linejoin="round"/>
<path d="M485.943 316.629H456.076V420.377H485.943V316.629Z" stroke="#969696" stroke-miterlimit="10" stroke-linecap="round" stroke-linejoin="round"/>
<path d="M533.101 316.629H503.234V420.377H533.101V316.629Z" stroke="#969696" stroke-miterlimit="10" stroke-linecap="round" stroke-linejoin="round"/>
<path d="M485.943 428.236H456.076V451.029H485.943V428.236Z" stroke="#969696" stroke-miterlimit="10" stroke-linecap="round" stroke-linejoin="round"/>
<path d="M533.101 428.236H503.234V451.029H533.101V428.236Z" stroke="#969696" stroke-miterlimit="10" stroke-linecap="round" stroke-linejoin="round"/>
<path d="M494.588 307.197V455.741" stroke="#969696" stroke-miterlimit="10" stroke-linecap="round" stroke-linejoin="round"/>
<path d="M437.304 470.266H567.806V459.194H437.304V470.266Z" stroke="#969696" stroke-miterlimit="10" stroke-linecap="round" stroke-linejoin="round"/>
<path d="M432.631 456.866H572.479C573.092 456.866 573.589 457.362 573.589 457.975C573.589 458.587 573.093 459.083 572.481 459.083H432.631C432.019 459.083 431.523 458.587 431.523 457.975C431.522 457.363 432.019 456.866 432.631 456.866Z" stroke="#969696" stroke-miterlimit="10" stroke-linecap="round" stroke-linejoin="round"/>
<path d="M441.062 483.723H571.565V472.651H441.062V483.723Z" stroke="#969696" stroke-miterlimit="10" stroke-linecap="round" stroke-linejoin="round"/>
<path d="M436.389 470.322H576.237C576.849 470.322 577.345 470.818 577.345 471.43C577.345 472.043 576.849 472.538 576.237 472.538H436.389C435.777 472.538 435.281 472.043 435.281 471.43C435.281 470.819 435.777 470.322 436.389 470.322Z" stroke="#969696" stroke-miterlimit="10" stroke-linecap="round" stroke-linejoin="round"/>
<path d="M444.821 497.179H575.323V486.106H444.821V497.179Z" stroke="#969696" stroke-miterlimit="10" stroke-linecap="round" stroke-linejoin="round"/>
<path d="M440.148 483.78H579.996C580.608 483.78 581.105 484.276 581.105 484.889C581.105 485.502 580.61 485.997 579.997 485.997H440.148C439.536 485.997 439.04 485.502 439.04 484.889C439.038 484.276 439.534 483.78 440.148 483.78Z" stroke="#969696" stroke-miterlimit="10" stroke-linecap="round" stroke-linejoin="round"/>
<path d="M448.579 510.636H579.081V499.563H448.579V510.636Z" stroke="#969696" stroke-miterlimit="10" stroke-linecap="round" stroke-linejoin="round"/>
<path d="M443.905 497.236H583.753C584.366 497.236 584.863 497.732 584.863 498.344C584.863 498.957 584.366 499.454 583.753 499.454H443.905C443.293 499.454 442.796 498.958 442.796 498.344C442.796 497.732 443.293 497.236 443.905 497.236Z" stroke="#969696" stroke-miterlimit="10" stroke-linecap="round" stroke-linejoin="round"/>
<path d="M452.336 524.092H582.838V513.02H452.336V524.092Z" stroke="#969696" stroke-miterlimit="10" stroke-linecap="round" stroke-linejoin="round"/>
<path d="M447.663 510.693H587.512C588.125 510.693 588.621 511.19 588.621 511.802C588.621 512.414 588.125 512.912 587.512 512.912H447.663C447.051 512.912 446.555 512.416 446.555 511.802C446.555 511.188 447.051 510.693 447.663 510.693Z" stroke="#969696" stroke-miterlimit="10" stroke-linecap="round" stroke-linejoin="round"/>
<path d="M456.094 537.549H586.597V526.477H456.094V537.549Z" stroke="#969696" stroke-miterlimit="10" stroke-linecap="round" stroke-linejoin="round"/>
<path d="M451.421 524.149H591.27C591.882 524.149 592.378 524.645 592.378 525.257C592.378 525.869 591.882 526.367 591.269 526.367H451.421C450.808 526.367 450.312 525.871 450.312 525.258C450.312 524.646 450.808 524.149 451.421 524.149Z" stroke="#969696" stroke-miterlimit="10" stroke-linecap="round" stroke-linejoin="round"/>
<path d="M459.852 551.006H590.355V539.934H459.852V551.006Z" stroke="#969696" stroke-miterlimit="10" stroke-linecap="round" stroke-linejoin="round"/>
<path d="M455.18 537.605H595.028C595.64 537.605 596.136 538.101 596.136 538.715C596.136 539.327 595.64 539.823 595.028 539.823H455.18C454.567 539.823 454.071 539.327 454.071 538.715C454.07 538.102 454.567 537.605 455.18 537.605Z" stroke="#969696" stroke-miterlimit="10" stroke-linecap="round" stroke-linejoin="round"/>
<path d="M463.61 564.462H594.112V553.39H463.61V564.462Z" stroke="#969696" stroke-miterlimit="10" stroke-linecap="round" stroke-linejoin="round"/>
<path d="M458.937 551.063H598.785C599.397 551.063 599.893 551.559 599.893 552.171C599.893 552.783 599.397 553.279 598.785 553.279H458.937C458.325 553.279 457.829 552.783 457.829 552.171C457.828 551.559 458.325 551.063 458.937 551.063Z" stroke="#969696" stroke-miterlimit="10" stroke-linecap="round" stroke-linejoin="round"/>
<path d="M467.368 577.919H597.87V566.846H467.368V577.919Z" stroke="#969696" stroke-miterlimit="10" stroke-linecap="round" stroke-linejoin="round"/>
<path d="M462.695 564.519H602.544C603.156 564.519 603.652 565.015 603.652 565.627C603.652 566.24 603.156 566.736 602.544 566.736H462.695C462.082 566.736 461.585 566.24 461.585 565.627C461.587 565.015 462.082 564.519 462.695 564.519Z" stroke="#969696" stroke-miterlimit="10" stroke-linecap="round" stroke-linejoin="round"/>
<path d="M467.368 591.376H597.87V580.303H467.368V591.376Z" stroke="#969696" stroke-miterlimit="10" stroke-linecap="round" stroke-linejoin="round"/>
<path d="M462.695 577.976H602.544C603.156 577.976 603.652 578.472 603.652 579.084C603.652 579.696 603.156 580.192 602.544 580.192H462.695C462.082 580.192 461.585 579.696 461.585 579.083C461.587 578.472 462.082 577.976 462.695 577.976Z" stroke="#969696" stroke-miterlimit="10" stroke-linecap="round" stroke-linejoin="round"/>
<path d="M556.553 414.86H572.535L611.543 547.981" stroke="#969696" stroke-miterlimit="10" stroke-linecap="round" stroke-linejoin="round"/>
<path d="M559.791 416.368V457.354" stroke="#969696" stroke-miterlimit="10" stroke-linecap="round" stroke-linejoin="round"/>
<path d="M565.577 415.403V455.907" stroke="#969696" stroke-miterlimit="10" stroke-linecap="round" stroke-linejoin="round"/>
<path d="M570.991 415.403V455.907" stroke="#969696" stroke-miterlimit="10" stroke-linecap="round" stroke-linejoin="round"/>
<path d="M575.768 426.549V470.322" stroke="#969696" stroke-miterlimit="10" stroke-linecap="round" stroke-linejoin="round"/>
<path d="M580.545 441.934V483.697" stroke="#969696" stroke-miterlimit="10" stroke-linecap="round" stroke-linejoin="round"/>
<path d="M584.366 455.628V497.392" stroke="#969696" stroke-miterlimit="10" stroke-linecap="round" stroke-linejoin="round"/>
<path d="M588.188 467.312V511.085" stroke="#969696" stroke-miterlimit="10" stroke-linecap="round" stroke-linejoin="round"/>
<path d="M592.01 481.006V524.778" stroke="#969696" stroke-miterlimit="10" stroke-linecap="round" stroke-linejoin="round"/>
<path d="M595.831 494.699V538.473" stroke="#969696" stroke-miterlimit="10" stroke-linecap="round" stroke-linejoin="round"/>
<path d="M599.652 508.393V552.166" stroke="#969696" stroke-miterlimit="10" stroke-linecap="round" stroke-linejoin="round"/>
<path d="M603.473 522.087V565.859" stroke="#969696" stroke-miterlimit="10" stroke-linecap="round" stroke-linejoin="round"/>
<path d="M433.079 414.86H444.336L471.814 547.98H448.681V591.248" stroke="#969696" stroke-miterlimit="10" stroke-linecap="round" stroke-linejoin="round"/>
<path d="M435.359 416.368V457.354" stroke="#969696" stroke-miterlimit="10" stroke-linecap="round" stroke-linejoin="round"/>
<path d="M439.435 415.403V455.907" stroke="#969696" stroke-miterlimit="10" stroke-linecap="round" stroke-linejoin="round"/>
<path d="M443.249 415.403V455.907" stroke="#969696" stroke-miterlimit="10" stroke-linecap="round" stroke-linejoin="round"/>
<path d="M446.614 426.549V470.322" stroke="#969696" stroke-miterlimit="10" stroke-linecap="round" stroke-linejoin="round"/>
<path d="M449.979 441.934V483.697" stroke="#969696" stroke-miterlimit="10" stroke-linecap="round" stroke-linejoin="round"/>
<path d="M452.67 455.628V497.392" stroke="#969696" stroke-miterlimit="10" stroke-linecap="round" stroke-linejoin="round"/>
<path d="M455.363 467.312V511.085" stroke="#969696" stroke-miterlimit="10" stroke-linecap="round" stroke-linejoin="round"/>
<path d="M458.054 481.006V524.778" stroke="#969696" stroke-miterlimit="10" stroke-linecap="round" stroke-linejoin="round"/>
<path d="M460.745 494.699V538.473" stroke="#969696" stroke-miterlimit="10" stroke-linecap="round" stroke-linejoin="round"/>
<path d="M463.438 508.392V552.166" stroke="#969696" stroke-miterlimit="10" stroke-linecap="round" stroke-linejoin="round"/>
<path d="M466.129 522.087V565.859" stroke="#969696" stroke-miterlimit="10" stroke-linecap="round" stroke-linejoin="round"/>
<path d="M455.136 548.747V590.71" stroke="#969696" stroke-miterlimit="10" stroke-linecap="round" stroke-linejoin="round"/>
<path d="M211.769 566.567H180.188V591.312H211.769V566.567Z" stroke="#969696" stroke-miterlimit="10" stroke-linecap="round" stroke-linejoin="round"/>
<path d="M203.457 566.567H188.503V591.312H203.457V566.567Z" stroke="#969696" stroke-miterlimit="10" stroke-linecap="round" stroke-linejoin="round"/>
<path d="M448.671 566.567H417.09V591.312H448.671V566.567Z" stroke="#969696" stroke-miterlimit="10" stroke-linecap="round" stroke-linejoin="round"/>
<path d="M440.357 566.567H425.403V591.312H440.357V566.567Z" stroke="#969696" stroke-miterlimit="10" stroke-linecap="round" stroke-linejoin="round"/>
<path d="M0.677567 591.312H624.537" stroke="#969696" stroke-miterlimit="10" stroke-linecap="round" stroke-linejoin="round"/>
<path d="M296.653 431.38H222.772V272.615L236.036 267.253C251.224 261.113 268.202 261.113 283.389 267.253L296.653 272.615V431.38Z" stroke="#969696" stroke-miterlimit="10" stroke-linecap="round" stroke-linejoin="round"/>
<path d="M291.938 348.854V282.112L280.368 277.435C267.12 272.079 252.308 272.079 239.06 277.435L227.489 282.112V348.854H291.938Z" stroke="#969696" stroke-miterlimit="10" stroke-linecap="round" stroke-linejoin="round"/>
<path d="M296.655 413.728H222.774V431.381H296.655V413.728Z" stroke="#969696" stroke-miterlimit="10" stroke-linecap="round" stroke-linejoin="round"/>
<path d="M227.489 348.854V412.517" stroke="#969696" stroke-miterlimit="10" stroke-linecap="round" stroke-linejoin="round"/>
<path d="M291.938 348.854V413.728" stroke="#969696" stroke-miterlimit="10" stroke-linecap="round" stroke-linejoin="round"/>
<path d="M227.489 305.626H292.724" stroke="#969696" stroke-miterlimit="10" stroke-linecap="round" stroke-linejoin="round"/>
<path d="M279.362 315.057L248.317 346.102" stroke="#969696" stroke-miterlimit="10" stroke-linecap="round" stroke-linejoin="round"/>
<path d="M265.215 318.2L257.748 325.667" stroke="#969696" stroke-miterlimit="10" stroke-linecap="round" stroke-linejoin="round"/>
<path d="M166.814 176.819H92.933V18.0535L106.197 12.6918C121.384 6.55176 138.363 6.55176 153.55 12.6918L166.814 18.0535V176.819Z" stroke="#969696" stroke-miterlimit="10" stroke-linecap="round" stroke-linejoin="round"/>
<path d="M162.098 94.2923V27.5508L150.528 22.8734C137.28 17.517 122.468 17.517 109.219 22.8734L97.6484 27.5508V94.2923H162.098Z" stroke="#969696" stroke-miterlimit="10" stroke-linecap="round" stroke-linejoin="round"/>
<path d="M166.814 159.167H92.933V176.819H166.814V159.167Z" stroke="#969696" stroke-miterlimit="10" stroke-linecap="round" stroke-linejoin="round"/>
<path d="M97.6484 94.2922V157.955" stroke="#969696" stroke-miterlimit="10" stroke-linecap="round" stroke-linejoin="round"/>
<path d="M162.098 94.2922V159.167" stroke="#969696" stroke-miterlimit="10" stroke-linecap="round" stroke-linejoin="round"/>
<path d="M97.6484 51.0631H162.884" stroke="#969696" stroke-miterlimit="10" stroke-linecap="round" stroke-linejoin="round"/>
<path d="M149.523 60.495L118.477 91.5408" stroke="#969696" stroke-miterlimit="10" stroke-linecap="round" stroke-linejoin="round"/>
<path d="M135.375 63.6389L127.908 71.1057" stroke="#969696" stroke-miterlimit="10" stroke-linecap="round" stroke-linejoin="round"/>
<path d="M289.905 176.819H216.024V18.0535L229.288 12.6918C244.475 6.55176 261.454 6.55176 276.641 12.6918L289.905 18.0535V176.819Z" stroke="#969696" stroke-miterlimit="10" stroke-linecap="round" stroke-linejoin="round"/>
<path d="M285.188 94.2923V27.5508L273.617 22.8734C260.369 17.517 245.557 17.517 232.309 22.8734L220.738 27.5508V94.2923H285.188Z" stroke="#969696" stroke-miterlimit="10" stroke-linecap="round" stroke-linejoin="round"/>
<path d="M289.905 159.167H216.024V176.819H289.905V159.167Z" stroke="#969696" stroke-miterlimit="10" stroke-linecap="round" stroke-linejoin="round"/>
<path d="M220.739 94.2922V157.955" stroke="#969696" stroke-miterlimit="10" stroke-linecap="round" stroke-linejoin="round"/>
<path d="M285.188 94.2922V159.167" stroke="#969696" stroke-miterlimit="10" stroke-linecap="round" stroke-linejoin="round"/>
<path d="M220.739 51.0631H285.975" stroke="#969696" stroke-miterlimit="10" stroke-linecap="round" stroke-linejoin="round"/>
<path d="M272.613 60.495L241.567 91.5408" stroke="#969696" stroke-miterlimit="10" stroke-linecap="round" stroke-linejoin="round"/>
<path d="M258.466 63.6389L250.999 71.1057" stroke="#969696" stroke-miterlimit="10" stroke-linecap="round" stroke-linejoin="round"/>
<path d="M412.995 176.819H339.113V18.0535L352.378 12.6918C367.565 6.55176 384.543 6.55176 399.731 12.6918L412.995 18.0535V176.819Z" stroke="#969696" stroke-miterlimit="10" stroke-linecap="round" stroke-linejoin="round"/>
<path d="M408.279 94.2923V27.5508L396.708 22.8734C383.46 17.517 368.648 17.517 355.4 22.8734L343.83 27.5508V94.2923H408.279Z" stroke="#969696" stroke-miterlimit="10" stroke-linecap="round" stroke-linejoin="round"/>
<path d="M412.995 159.167H339.113V176.819H412.995V159.167Z" stroke="#969696" stroke-miterlimit="10" stroke-linecap="round" stroke-linejoin="round"/>
<path d="M343.83 94.2922V157.955" stroke="#969696" stroke-miterlimit="10" stroke-linecap="round" stroke-linejoin="round"/>
<path d="M408.279 94.2922V159.167" stroke="#969696" stroke-miterlimit="10" stroke-linecap="round" stroke-linejoin="round"/>
<path d="M343.83 51.0631H409.066" stroke="#969696" stroke-miterlimit="10" stroke-linecap="round" stroke-linejoin="round"/>
<path d="M395.703 60.495L364.658 91.5408" stroke="#969696" stroke-miterlimit="10" stroke-linecap="round" stroke-linejoin="round"/>
<path d="M381.556 63.6389L374.089 71.1057" stroke="#969696" stroke-miterlimit="10" stroke-linecap="round" stroke-linejoin="round"/>
<path d="M536.085 176.819H462.204V18.0535L475.468 12.6918C490.656 6.55176 507.634 6.55176 522.821 12.6918L536.085 18.0535V176.819Z" stroke="#969696" stroke-miterlimit="10" stroke-linecap="round" stroke-linejoin="round"/>
<path d="M531.37 94.2923V27.5508L519.799 22.8734C506.551 17.517 491.739 17.517 478.491 22.8734L466.92 27.5508V94.2923H531.37Z" stroke="#969696" stroke-miterlimit="10" stroke-linecap="round" stroke-linejoin="round"/>
<path d="M536.086 159.167H462.204V176.819H536.086V159.167Z" stroke="#969696" stroke-miterlimit="10" stroke-linecap="round" stroke-linejoin="round"/>
<path d="M466.921 94.2922V157.955" stroke="#969696" stroke-miterlimit="10" stroke-linecap="round" stroke-linejoin="round"/>
<path d="M531.37 94.2922V159.167" stroke="#969696" stroke-miterlimit="10" stroke-linecap="round" stroke-linejoin="round"/>
<path d="M466.921 51.0631H532.157" stroke="#969696" stroke-miterlimit="10" stroke-linecap="round" stroke-linejoin="round"/>
<path d="M518.794 60.495L487.749 91.5408" stroke="#969696" stroke-miterlimit="10" stroke-linecap="round" stroke-linejoin="round"/>
<path d="M504.647 63.6389L497.18 71.1057" stroke="#969696" stroke-miterlimit="10" stroke-linecap="round" stroke-linejoin="round"/>
<path d="M296.653 591.312H222.772V489.921L236.036 484.56C251.224 478.42 268.202 478.42 283.389 484.56L296.653 489.921V591.312Z" stroke="#969696" stroke-miterlimit="10" stroke-linecap="round" stroke-linejoin="round"/>
<path d="M291.938 566.16V499.419L280.368 494.741C267.12 489.385 252.308 489.385 239.06 494.741L227.489 499.419V566.16H291.938Z" stroke="#969696" stroke-miterlimit="10" stroke-linecap="round" stroke-linejoin="round"/>
<path d="M296.655 583.091H222.774V591.312H296.655V583.091Z" stroke="#969696" stroke-miterlimit="10" stroke-linecap="round" stroke-linejoin="round"/>
<path d="M227.489 566.16V581.88" stroke="#969696" stroke-miterlimit="10" stroke-linecap="round" stroke-linejoin="round"/>
<path d="M291.938 566.16V583.091" stroke="#969696" stroke-miterlimit="10" stroke-linecap="round" stroke-linejoin="round"/>
<path d="M227.489 522.932H291.764" stroke="#969696" stroke-miterlimit="10" stroke-linecap="round" stroke-linejoin="round"/>
<path d="M279.362 532.364L248.317 563.41" stroke="#969696" stroke-miterlimit="10" stroke-linecap="round" stroke-linejoin="round"/>
<path d="M265.215 535.508L257.748 542.975" stroke="#969696" stroke-miterlimit="10" stroke-linecap="round" stroke-linejoin="round"/>
<path d="M402.631 431.38H328.75V272.615L342.014 267.253C357.201 261.113 374.18 261.113 389.367 267.253L402.631 272.615V431.38Z" stroke="#969696" stroke-miterlimit="10" stroke-linecap="round" stroke-linejoin="round"/>
<path d="M397.915 348.854V282.112L386.344 277.435C373.095 272.079 358.283 272.079 345.035 277.435L333.464 282.112V348.854H397.915Z" stroke="#969696" stroke-miterlimit="10" stroke-linecap="round" stroke-linejoin="round"/>
<path d="M402.631 413.728H328.75V431.381H402.631V413.728Z" stroke="#969696" stroke-miterlimit="10" stroke-linecap="round" stroke-linejoin="round"/>
<path d="M333.465 348.854V412.517" stroke="#969696" stroke-miterlimit="10" stroke-linecap="round" stroke-linejoin="round"/>
<path d="M397.915 348.854V413.728" stroke="#969696" stroke-miterlimit="10" stroke-linecap="round" stroke-linejoin="round"/>
<path d="M333.465 305.626H398.701" stroke="#969696" stroke-miterlimit="10" stroke-linecap="round" stroke-linejoin="round"/>
<path d="M385.34 315.057L354.294 346.102" stroke="#969696" stroke-miterlimit="10" stroke-linecap="round" stroke-linejoin="round"/>
<path d="M371.192 318.2L363.725 325.667" stroke="#969696" stroke-miterlimit="10" stroke-linecap="round" stroke-linejoin="round"/>
<path d="M402.631 591.312H328.75V489.921L342.014 484.56C357.201 478.42 374.18 478.42 389.367 484.56L402.631 489.921V591.312Z" stroke="#969696" stroke-miterlimit="10" stroke-linecap="round" stroke-linejoin="round"/>
<path d="M397.915 566.16V499.419L386.344 494.741C373.095 489.385 358.283 489.385 345.035 494.741L333.464 499.419V566.16H397.915Z" stroke="#969696" stroke-miterlimit="10" stroke-linecap="round" stroke-linejoin="round"/>
<path d="M402.631 583.091H328.75V591.312H402.631V583.091Z" stroke="#969696" stroke-miterlimit="10" stroke-linecap="round" stroke-linejoin="round"/>
<path d="M333.465 566.16V581.88" stroke="#969696" stroke-miterlimit="10" stroke-linecap="round" stroke-linejoin="round"/>
<path d="M397.915 566.16V583.091" stroke="#969696" stroke-miterlimit="10" stroke-linecap="round" stroke-linejoin="round"/>
<path d="M333.465 522.932H397.74" stroke="#969696" stroke-miterlimit="10" stroke-linecap="round" stroke-linejoin="round"/>
<path d="M385.34 532.364L354.294 563.41" stroke="#969696" stroke-miterlimit="10" stroke-linecap="round" stroke-linejoin="round"/>
<path d="M371.192 535.508L363.725 542.975" stroke="#969696" stroke-miterlimit="10" stroke-linecap="round" stroke-linejoin="round"/>
<path d="M194.029 497.401H221.987" stroke="#969696" stroke-miterlimit="10" stroke-linecap="round" stroke-linejoin="round"/>
<path d="M402.631 497.401H434.069" stroke="#969696" stroke-miterlimit="10" stroke-linecap="round" stroke-linejoin="round"/>
<path d="M296.653 497.401H327.964" stroke="#969696" stroke-miterlimit="10" stroke-linecap="round" stroke-linejoin="round"/>
<path d="M194.029 528.054H221.987" stroke="#969696" stroke-miterlimit="10" stroke-linecap="round" stroke-linejoin="round"/>
<path d="M402.631 528.054H434.069" stroke="#969696" stroke-miterlimit="10" stroke-linecap="round" stroke-linejoin="round"/>
<path d="M296.653 528.054H327.964" stroke="#969696" stroke-miterlimit="10" stroke-linecap="round" stroke-linejoin="round"/>
<path d="M194.029 558.708H221.987" stroke="#969696" stroke-miterlimit="10" stroke-linecap="round" stroke-linejoin="round"/>
<path d="M402.631 558.708H434.069" stroke="#969696" stroke-miterlimit="10" stroke-linecap="round" stroke-linejoin="round"/>
<path d="M296.653 558.708H327.964" stroke="#969696" stroke-miterlimit="10" stroke-linecap="round" stroke-linejoin="round"/>
<path d="M324.035 431.38H302.156V440.026H324.035V431.38Z" stroke="#969696" stroke-miterlimit="10" stroke-linecap="round" stroke-linejoin="round"/>
<path d="M137.84 238.845V245.226C157.165 246.487 173.661 258.096 181.854 274.567V238.845H137.84Z" stroke="#969696" stroke-miterlimit="10" stroke-linecap="round" stroke-linejoin="round"/>
<path d="M119.762 238.845H75.748V274.567C83.9409 258.096 100.437 246.487 119.762 245.226V238.845Z" stroke="#969696" stroke-miterlimit="10" stroke-linecap="round" stroke-linejoin="round"/>
<path d="M507.95 238.845V245.226C527.276 246.487 543.77 258.096 551.965 274.567V238.845H507.95Z" stroke="#969696" stroke-miterlimit="10" stroke-linecap="round" stroke-linejoin="round"/>
<path d="M489.873 238.845H445.859V274.567C454.053 258.096 470.547 246.487 489.873 245.226V238.845Z" stroke="#969696" stroke-miterlimit="10" stroke-linecap="round" stroke-linejoin="round"/>
<path d="M203.851 457.317V227.814" stroke="#969696" stroke-miterlimit="10" stroke-linecap="round" stroke-linejoin="round"/>
<path d="M422.28 457.317V227.814" stroke="#969696" stroke-miterlimit="10" stroke-linecap="round" stroke-linejoin="round"/>
<path d="M258.96 226.489H591.473" stroke="#969696" stroke-miterlimit="10" stroke-linecap="round" stroke-linejoin="round"/>
<path d="M35.3722 226.489H249.788" stroke="#969696" stroke-miterlimit="10" stroke-linecap="round" stroke-linejoin="round"/>
<path d="M565.872 190.528H591.473" stroke="#969696" stroke-miterlimit="10" stroke-linecap="round" stroke-linejoin="round"/>
<path d="M35.3722 190.528H557.313" stroke="#969696" stroke-miterlimit="10" stroke-linecap="round" stroke-linejoin="round"/>
<path d="M439.722 336.627C439.722 392.355 406.755 437.532 366.089 437.532C325.423 437.532 292.456 392.355 292.456 336.627C292.456 280.899 325.423 89.3651 366.089 89.3651C406.755 89.3638 439.722 280.898 439.722 336.627Z" fill="#33B633"/>
<path opacity="0.3" d="M439.722 336.627C439.722 392.355 406.755 437.532 366.089 437.532C325.423 437.532 292.456 392.355 292.456 336.627C292.456 280.899 325.423 89.3651 366.089 89.3651C406.755 89.3638 439.722 280.898 439.722 336.627Z" fill="white"/>
<path d="M326.313 341.636L349.799 349.829L361.431 365.643L359.397 414.063L345.859 404.876L358.977 424.084L355.902 591.089H370.268L368.372 387.284L407.375 365.783L385.08 374.029L389.553 360.608L378.894 376.317L368.252 380.253L367.492 336.18L406.225 284.719L385.467 305.477L388.979 291.043L379.048 311.897L367.276 323.669L366.088 254.812L361.87 355.237L325.163 316.34L345.326 343.749L326.313 341.636Z" fill="#8C8C8C"/>
<path d="M406.597 255.029C406.597 255.029 407.277 261.795 403.58 266.76C399.882 271.727 393.206 273.013 393.206 273.013C393.206 273.013 392.524 266.249 396.223 261.282C399.92 256.317 406.597 255.029 406.597 255.029Z" fill="white"/>
<path d="M428.79 286.211C428.79 286.211 429.472 292.976 425.773 297.942C422.076 302.908 415.399 304.195 415.399 304.195C415.399 304.195 414.718 297.429 418.416 292.464C422.114 287.497 428.79 286.211 428.79 286.211Z" fill="white"/>
<path d="M428.78 346.92C428.78 346.92 427.145 353.519 421.991 356.951C416.837 360.383 410.118 359.347 410.118 359.347C410.118 359.347 411.753 352.747 416.908 349.316C422.06 345.885 428.78 346.92 428.78 346.92Z" fill="white"/>
<path d="M306.898 346.92C306.898 346.92 308.535 353.519 313.687 356.951C318.841 360.383 325.56 359.347 325.56 359.347C325.56 359.347 323.925 352.747 318.771 349.316C313.618 345.885 306.898 346.92 306.898 346.92Z" fill="white"/>
<path d="M403.148 321.72C403.148 321.72 403.828 328.485 400.131 333.451C396.434 338.417 389.757 339.703 389.757 339.703C389.757 339.703 389.077 332.938 392.774 327.973C396.472 323.007 403.148 321.72 403.148 321.72Z" fill="white"/>
<path d="M397.398 221.109C397.398 221.109 398.078 227.873 394.381 232.84C390.683 237.806 384.007 239.092 384.007 239.092C384.007 239.092 383.325 232.327 387.024 227.362C390.723 222.397 397.398 221.109 397.398 221.109Z" fill="white"/>
<path d="M384.176 246.981C384.176 246.981 384.856 253.746 381.159 258.711C377.461 263.678 370.785 264.965 370.785 264.965C370.785 264.965 370.104 258.2 373.802 253.234C377.499 248.268 384.176 246.981 384.176 246.981Z" fill="white"/>
<path d="M415.567 228.144C415.567 228.144 416.249 234.908 412.55 239.875C408.851 244.841 402.176 246.127 402.176 246.127C402.176 246.127 401.494 239.363 405.193 234.397C408.89 229.432 415.567 228.144 415.567 228.144Z" fill="white"/>
<path d="M313.559 228.144C313.559 228.144 312.877 234.908 316.576 239.875C320.273 244.841 326.95 246.127 326.95 246.127C326.95 246.127 327.631 239.363 323.933 234.397C320.235 229.432 313.559 228.144 313.559 228.144Z" fill="white"/>
<path d="M400.272 189.489C400.272 189.489 400.954 196.255 397.255 201.22C393.558 206.186 386.881 207.472 386.881 207.472C386.881 207.472 386.2 200.707 389.898 195.742C393.597 190.776 400.272 189.489 400.272 189.489Z" fill="white"/>
<path d="M393.775 155.9C393.775 155.9 396.134 162.277 393.802 168.013C391.471 173.748 385.332 176.671 385.332 176.671C385.332 176.671 382.973 170.294 385.305 164.558C387.636 158.823 393.775 155.9 393.775 155.9Z" fill="white"/>
<path d="M347.211 147.123C347.211 147.123 353.233 150.278 355.345 156.099C357.456 161.92 354.855 168.202 354.855 168.202C354.855 168.202 348.832 165.048 346.721 159.227C344.611 153.405 347.211 147.123 347.211 147.123Z" fill="white"/>
<path d="M368.924 187.288C368.924 187.288 373.214 192.562 372.86 198.744C372.504 204.926 367.637 209.673 367.637 209.673C367.637 209.673 363.347 204.399 363.701 198.217C364.059 192.036 368.924 187.288 368.924 187.288Z" fill="white"/>
<path d="M367.776 127.497C367.776 127.497 372.066 132.771 371.711 138.953C371.355 145.135 366.488 149.881 366.488 149.881C366.488 149.881 362.198 144.607 362.553 138.426C362.908 132.245 367.776 127.497 367.776 127.497Z" fill="white"/>
<path d="M319.042 255.029C319.042 255.029 318.361 261.795 322.059 266.76C325.758 271.725 332.433 273.013 332.433 273.013C332.433 273.013 333.115 266.249 329.416 261.282C325.719 256.317 319.042 255.029 319.042 255.029Z" fill="white"/>
<path d="M306.394 291.824C306.394 291.824 305.714 298.59 309.411 303.555C313.109 308.521 319.785 309.807 319.785 309.807C319.785 309.807 320.467 303.042 316.768 298.075C313.07 293.112 306.394 291.824 306.394 291.824Z" fill="white"/>
<path d="M339.968 305.184C339.968 305.184 339.286 311.949 342.985 316.914C346.682 321.881 353.359 323.167 353.359 323.167C353.359 323.167 354.041 316.402 350.342 311.436C346.644 306.47 339.968 305.184 339.968 305.184Z" fill="white"/>
<path d="M349.147 254.2C349.147 254.2 346.558 260.487 348.679 266.304C350.8 272.12 356.827 275.266 356.827 275.266C356.827 275.266 359.416 268.979 357.297 263.162C355.176 257.344 349.147 254.2 349.147 254.2Z" fill="white"/>
<path d="M325.373 389.865C325.373 389.865 332.172 389.99 336.817 385.897C341.463 381.805 342.199 375.046 342.199 375.046C342.199 375.046 335.401 374.921 330.755 379.014C326.109 383.105 325.373 389.865 325.373 389.865Z" fill="white"/>
<path d="M390.605 382.429C390.605 382.429 392.451 388.972 397.713 392.237C402.974 395.502 409.657 394.251 409.657 394.251C409.657 394.251 407.811 387.708 402.55 384.443C397.288 381.178 390.605 382.429 390.605 382.429Z" fill="white"/>
<path d="M332.956 221.109C332.956 221.109 332.276 227.873 335.974 232.84C339.671 237.806 346.347 239.092 346.347 239.092C346.347 239.092 347.029 232.327 343.33 227.362C339.633 222.397 332.956 221.109 332.956 221.109Z" fill="white"/>
<path d="M332.84 191.213C332.84 191.213 332.158 197.978 335.857 202.944C339.554 207.911 346.231 209.197 346.231 209.197C346.231 209.197 346.913 202.431 343.214 197.466C339.517 192.501 332.84 191.213 332.84 191.213Z" fill="white"/>
<path opacity="0.5" d="M570.991 605.769C570.991 608.053 526.129 609.906 470.791 609.906C415.452 609.906 370.591 608.055 370.591 605.769C370.591 603.485 415.452 601.632 470.791 601.632C526.129 601.632 570.991 603.485 570.991 605.769Z" fill="#101410" stroke="#101410" stroke-miterlimit="10"/>
<path d="M431.42 582.876C431.42 582.876 423.785 589.663 419.543 592.208C415.301 594.753 402.999 598.571 401.09 600.267C399.181 601.964 404.272 604.509 412.755 604.509C421.24 604.509 426.755 602.812 434.39 602.6C442.026 602.388 447.328 604.297 449.237 601.539C451.146 598.782 449.449 587.328 449.449 587.328L431.42 582.876Z" fill="white" stroke="#101410" stroke-miterlimit="10"/>
<path d="M412.568 595.34C407.701 597.258 402.303 599.191 401.091 600.267C399.182 601.964 404.273 604.509 412.757 604.509C421.24 604.509 426.755 602.812 434.391 602.6C442.027 602.388 447.33 604.297 449.239 601.539C450.366 599.909 450.234 595.251 449.939 591.706C445.205 593.714 435.135 598.109 428.241 598.781C421.991 599.392 415.652 596.833 412.568 595.34Z" fill="white" stroke="#101410" stroke-miterlimit="10"/>
<path d="M499.293 576.937C499.293 576.937 492.718 592.845 491.234 595.602C489.749 598.359 480.84 600.267 479.781 602.813C478.72 605.358 480.204 604.934 490.386 606.419C500.568 607.904 505.445 603.025 508.203 601.117C510.961 599.208 521.991 588.39 523.474 585.634C524.959 582.877 518.171 570.786 515.839 569.089C513.505 567.393 499.293 576.937 499.293 576.937Z" fill="white" stroke="#101410" stroke-miterlimit="10"/>
<path d="M501.626 601.329C496.941 602.459 490.913 599.412 488.302 597.893C485.107 599.561 480.522 601.032 479.781 602.813C478.72 605.358 480.204 604.934 490.386 606.419C500.568 607.904 505.445 603.025 508.203 601.117C510.961 599.208 521.991 588.39 523.474 585.634C524.393 583.928 522.144 578.65 519.743 574.469C516.37 581.033 506.773 600.086 501.626 601.329Z" fill="white" stroke="#101410" stroke-miterlimit="10"/>
<path d="M430.784 415.527C430.784 415.527 426.966 460.493 428.028 484.46C429.089 508.428 433.966 564.423 434.178 569.937C434.39 575.452 431.42 582.24 431.42 582.876C431.42 583.511 439.056 586.481 443.085 586.905C447.115 587.329 448.176 587.753 449.448 587.329C450.721 586.905 452.206 571.846 453.689 561.241C455.173 550.635 456.022 529.426 455.598 517.123C455.174 504.821 455.174 500.155 455.174 500.155C455.174 500.155 473.415 521.79 478.718 530.061C484.021 538.333 497.383 571.846 497.595 574.815C497.807 577.785 497.171 578.633 499.292 578.633C501.413 578.633 507.777 577.148 511.169 575.239C514.563 573.33 515.623 571.421 515.835 569.088C516.047 566.755 508.411 548.302 507.563 544.061C506.716 539.819 503.534 527.305 496.958 515.214C490.382 503.124 482.959 495.064 481.687 492.308C480.414 489.55 479.566 484.672 479.566 484.672C479.566 484.672 481.263 450.524 482.111 444.372C482.959 438.222 487.202 431.646 486.14 424.646C485.079 417.647 483.384 411.284 483.384 410.648C483.386 410.013 430.784 415.527 430.784 415.527Z" fill="#101410" stroke="#101410" stroke-miterlimit="10"/>
<path d="M458.359 300.629C458.359 300.629 453.788 301.727 451.045 305.932C448.303 310.137 440.989 323.119 439.527 325.131C438.064 327.142 433.859 331.53 434.042 341.221C434.225 350.912 434.225 355.3 434.225 360.785C434.225 366.271 430.385 418.379 430.385 418.379C430.385 418.379 431.483 420.574 442.27 417.648C453.058 414.723 461.652 412.712 470.794 413.26C479.935 413.808 485.787 418.196 485.969 416.552C486.152 414.906 480.118 396.073 479.02 392.782C477.923 389.49 478.106 387.845 478.655 385.834C479.204 383.823 478.839 379.983 478.472 377.058C478.106 374.132 479.57 371.024 481.946 365.721C484.323 360.418 489.076 347.803 490.905 332.626C492.733 317.451 489.26 309.039 487.432 305.749C485.604 302.457 484.873 301.909 481.033 299.898C477.191 297.886 464.575 296.424 458.359 300.629Z" fill="#F5AD44" stroke="#101410" stroke-miterlimit="10" stroke-linecap="round" stroke-linejoin="round"/>
<path d="M447.392 385.524C447.392 385.524 455.606 381.201 467.062 382.93" stroke="#101410" stroke-miterlimit="10"/>
<path d="M462.306 377.53C458.355 377.764 453.64 378.25 451.066 379.257" stroke="#101410" stroke-miterlimit="10"/>
<path d="M469.006 377.312C469.006 377.312 467.604 377.312 465.543 377.381" stroke="#101410" stroke-miterlimit="10"/>
<path d="M464.468 360.884C464.468 360.884 468.791 367.584 473.546 370.394" stroke="#101410" stroke-miterlimit="10"/>
<path d="M455.799 240.84C455.799 240.84 450.313 243.218 448.119 249.251C445.924 255.285 446.108 260.769 445.559 262.415C445.011 264.061 440.073 267.352 440.623 269.364C441.171 271.375 442.817 273.021 443.365 273.204C443.913 273.387 446.108 287.466 448.302 288.746C450.496 290.025 458.274 288.942 458.274 288.942C458.274 288.942 456.712 295.146 457.444 299.351C458.176 303.556 453.788 309.773 453.056 312.516C452.325 315.258 457.444 301.545 465.489 299.899C473.535 298.253 482.859 302.458 484.139 304.471C485.418 306.482 485.418 306.482 485.418 306.482C485.418 306.482 482.676 296.242 480.482 291.854C478.288 287.466 476.642 284.357 477.373 282.347C478.105 280.336 484.912 273.315 486.333 267.719C489.373 255.748 487.399 246.199 479.019 241.573C471.817 237.594 463.295 236.817 455.799 240.84Z" fill="white" stroke="#101410" stroke-miterlimit="10"/>
<path d="M464.21 265.889C464.21 265.889 469.878 261.501 472.438 263.33C474.999 265.159 472.255 271.558 470.427 273.569C468.599 275.58 465.491 273.569 464.759 273.021" fill="white"/>
<path d="M464.21 265.889C464.21 265.889 469.878 261.501 472.438 263.33C474.999 265.159 472.255 271.558 470.427 273.569C468.599 275.58 465.491 273.569 464.759 273.021" stroke="#101410" stroke-miterlimit="10"/>
<path d="M407.166 328.652C407.166 328.652 404.081 324.367 402.367 318.368C400.653 312.369 398.082 300.2 398.082 300.2C398.082 300.2 401.339 303.971 402.024 305.171C402.71 306.37 403.396 304.656 401.51 301.057C399.625 297.458 398.768 294.887 398.768 294.887C398.768 294.887 402.539 294.887 405.624 303.285C408.709 311.684 411.622 326.079 411.622 326.079C411.622 326.079 413.679 334.649 407.166 328.652Z" fill="#33B633" stroke="#101410" stroke-miterlimit="10" stroke-linecap="round" stroke-linejoin="round"/>
<path d="M426.323 314.851C426.323 314.851 420.214 292.761 417.702 288.871C415.19 284.98 411.108 286.648 409.258 290.017C407.408 293.386 409.912 303.272 411.167 308.599C412.422 313.925 414.06 320.939 414.06 320.939L426.323 314.851Z" fill="#B8B8B8" stroke="#101410" stroke-miterlimit="10" stroke-linecap="round" stroke-linejoin="round"/>
<path d="M409.751 299.496C409.751 299.496 416.809 293.078 416.958 295.321C417.107 297.565 412.014 301.645 411.096 302.788C410.179 303.932 409.469 304.068 409.751 299.496Z" fill="white" stroke="#101410" stroke-miterlimit="10"/>
<path d="M412.304 308.748C412.304 308.748 419.361 302.329 419.51 304.573C419.659 306.817 414.565 310.896 413.649 312.04C412.733 313.183 412.021 313.32 412.304 308.748Z" fill="white" stroke="#101410" stroke-miterlimit="10"/>
<path d="M435.616 320.082C435.616 320.082 438.873 292.66 437.844 287.176C436.816 281.691 431.503 281.691 427.903 284.605C424.304 287.518 422.59 299.687 421.562 306.2C420.533 312.713 419.162 321.283 419.162 321.283L435.616 320.082Z" fill="#B8B8B8" stroke="#101410" stroke-miterlimit="10" stroke-linecap="round" stroke-linejoin="round"/>
<path d="M424.133 295.401C424.133 295.401 434.931 291.459 434.074 294.03C433.217 296.601 425.675 298.829 424.133 299.686C422.59 300.543 421.733 300.372 424.133 295.401Z" fill="white" stroke="#101410" stroke-miterlimit="10"/>
<path d="M422.763 306.885C422.763 306.885 433.561 302.943 432.704 305.513C431.847 308.084 424.305 310.312 422.763 311.169C421.219 312.026 420.362 311.855 422.763 306.885Z" fill="white" stroke="#101410" stroke-miterlimit="10"/>
<path d="M400.03 325.171C400.03 325.171 412.545 328.141 416.574 328.777C420.604 329.413 437.572 326.444 438.421 326.444C439.269 326.444 441.179 326.232 441.179 326.232C441.179 326.232 440.543 340.444 441.391 345.535C442.239 350.625 443.3 382.228 444.361 387.743C445.422 393.258 442.664 429.103 442.664 429.103C442.664 429.103 438.635 433.77 428.877 434.829C419.12 435.89 399.183 432.708 399.183 432.708C399.183 432.708 388.789 430.588 388.789 429.315C388.789 428.042 390.91 416.164 391.122 412.982C391.334 409.801 393.88 364.411 394.304 361.653C394.728 358.897 396.848 338.11 397.274 335.353C397.696 332.595 400.03 325.171 400.03 325.171Z" fill="#B8B8B8" stroke="#101410" stroke-miterlimit="10" stroke-linecap="round" stroke-linejoin="round"/>
<path d="M406.481 403.034C406.481 403.034 433.128 386.173 435.072 385.092C437.017 384.012 443.286 384.228 443.286 384.228C443.286 384.228 443.502 379.04 443.286 377.959C443.07 376.879 434.856 377.094 434.856 377.094L406.481 403.034Z" fill="#101410" stroke="#101410" stroke-miterlimit="10"/>
<path d="M407.783 352.749C407.783 352.749 412.277 361.736 414.023 363.234" stroke="#101410" stroke-miterlimit="10"/>
<path d="M406.036 355.744C406.036 355.744 408.032 367.975 410.28 370.722" stroke="#101410" stroke-miterlimit="10"/>
<path d="M407.533 427.389C407.533 427.389 416.52 425.142 422.511 422.396" stroke="#101410" stroke-miterlimit="10"/>
<path d="M411.527 421.148C411.527 421.148 407.782 423.894 405.536 424.393" stroke="#101410" stroke-miterlimit="10"/>
<path d="M411.279 327.452C411.279 327.452 407.68 324.024 408.709 323.338C409.737 322.653 411.622 323.51 411.622 323.51C411.622 323.51 407.852 319.91 409.566 319.568C411.279 319.225 413.165 320.767 413.165 320.767C413.165 320.767 411.451 316.825 412.479 316.825C413.508 316.825 414.707 318.368 414.707 318.368C414.707 318.368 413.85 314.94 415.05 314.94C416.25 314.94 416.936 316.311 416.936 316.311C416.936 316.311 415.736 311.855 417.278 312.198C418.821 312.541 419.506 314.597 419.506 314.597C419.506 314.597 419.164 309.284 420.706 310.141C422.249 310.998 422.249 312.712 422.249 312.712C422.249 312.712 423.448 308.77 424.305 310.141C425.162 311.512 424.648 313.398 424.648 313.398C424.648 313.398 427.219 307.742 428.247 309.627C429.276 311.512 428.762 313.226 428.762 313.226C428.762 313.226 430.133 309.284 431.333 310.827C432.532 312.369 431.847 313.74 431.847 313.74C431.847 313.74 433.732 311.341 434.418 312.541C435.103 313.74 434.589 314.94 434.589 314.94C434.589 314.94 436.303 312.026 437.331 313.74C438.36 315.454 438.188 317.168 438.188 317.168C438.188 317.168 439.902 313.74 440.588 315.797C441.273 317.854 440.588 319.568 440.588 319.568C440.588 319.568 442.302 317.682 442.645 320.082C442.987 322.481 442.302 324.024 442.302 324.024C442.302 324.024 444.701 324.71 442.987 325.909C441.273 327.109 439.731 327.28 439.731 327.28C439.731 327.28 441.616 330.366 439.902 330.708C438.188 331.051 436.474 328.48 436.474 328.48C436.474 328.48 434.932 331.051 433.732 330.708C432.532 330.366 432.19 327.966 432.19 327.966C432.19 327.966 431.333 329.509 430.476 329.509C429.619 329.509 428.762 327.795 428.762 327.795C428.762 327.795 427.905 330.708 426.534 330.537C425.162 330.366 425.162 330.366 425.162 330.366C425.162 330.366 424.991 330.537 423.62 331.051C422.249 331.565 421.906 329.68 421.906 329.68C421.906 329.68 422.514 331.725 420.706 331.737C418.898 331.748 418.992 330.194 418.992 330.194C418.992 330.194 417.964 332.251 417.278 331.394C416.593 330.537 416.574 328.777 416.574 328.777C416.574 328.777 414.022 331.223 413.336 330.708C413.336 330.708 411.108 330.537 410.423 330.023C409.737 329.509 411.279 327.452 411.279 327.452Z" fill="#33B633" stroke="#101410" stroke-miterlimit="10" stroke-linecap="round" stroke-linejoin="round"/>
<path d="M479.492 305.171C479.492 305.171 471.95 300.029 464.923 303.285C457.896 306.542 450.183 320.596 447.098 329.164C444.013 337.734 436.472 352.13 436.472 352.13L428.245 361.214C428.245 361.214 433.901 361.728 436.129 364.128C438.357 366.527 438.357 378.01 439.728 379.039C441.099 380.067 442.128 379.896 444.699 378.696C447.269 377.496 450.012 373.211 450.012 373.211C450.012 373.211 454.639 371.497 457.553 367.041C460.467 362.585 463.381 353.672 465.094 352.13C466.808 350.587 478.463 339.104 480.52 334.648C482.577 330.192 484.119 322.65 484.119 322.65" fill="#F5AD44"/>
<path d="M479.492 305.171C479.492 305.171 471.95 300.029 464.923 303.285C457.896 306.542 450.183 320.596 447.098 329.164C444.013 337.734 436.472 352.13 436.472 352.13L428.245 361.214C428.245 361.214 433.901 361.728 436.129 364.128C438.357 366.527 438.357 378.01 439.728 379.039C441.099 380.067 442.128 379.896 444.699 378.696C447.269 377.496 450.012 373.211 450.012 373.211C450.012 373.211 454.639 371.497 457.553 367.041C460.467 362.585 463.381 353.672 465.094 352.13C466.808 350.587 478.463 339.104 480.52 334.648C482.577 330.192 484.119 322.65 484.119 322.65" stroke="#101410" stroke-miterlimit="10" stroke-linecap="round" stroke-linejoin="round"/>
<path d="M463.152 344.162C465.458 343.611 467.116 343.134 467.494 342.945" stroke="#101410" stroke-miterlimit="10"/>
<path d="M441.34 349.212C441.34 349.212 445.663 347.051 452.363 346.186C454.939 345.854 457.645 345.362 460.047 344.857" stroke="#101410" stroke-miterlimit="10"/>
<path d="M445.231 344.242C444.582 344.674 457.552 339.487 461.875 339.054" stroke="#101410" stroke-miterlimit="10"/>
<path d="M428.246 361.215C428.246 361.215 395.168 398.063 394.654 400.463C394.14 402.862 392.426 417.431 391.569 419.83C390.712 422.23 390.027 424.115 391.226 424.972C392.426 425.829 394.311 426.001 395.34 426.515C396.368 427.029 400.31 428.057 401.51 427.886C402.71 427.715 405.109 428.743 405.452 427.715C405.795 426.686 402.367 425.658 402.024 423.601C401.681 421.544 405.966 413.146 406.309 410.404C406.652 407.661 406.48 403.034 406.48 403.034C406.48 403.034 433.217 383.324 434.931 382.467C436.644 381.61 439.73 379.039 439.73 379.039C439.73 379.039 439.901 373.04 438.358 367.041C436.816 361.044 432.017 359.844 428.246 361.215Z" fill="white" stroke="#101410" stroke-miterlimit="10"/>
<path d="M398.425 419.488C398.425 419.488 397.054 423.944 397.739 425.486C398.425 427.029 399.11 427.543 399.11 427.543" stroke="#101410" stroke-miterlimit="10"/>
<path d="M395.329 419.03C395.329 419.03 394.038 423.549 394.314 424.656C394.591 425.763 395.34 426.513 395.34 426.513" stroke="#101410" stroke-miterlimit="10"/>
<path d="M393.3 417.554C393.3 417.554 390.81 423.549 392.193 425.117" stroke="#101410" stroke-miterlimit="10"/>
<path d="M391.455 342.473C391.455 342.473 391.271 339.061 391.917 337.585C392.562 336.109 394.776 335.187 395.976 334.264C397.174 333.342 397.912 334.725 397.543 336.294C397.174 337.861 395.422 338.783 395.329 339.521C395.238 340.259 395.514 342.565 395.514 342.565C395.514 342.565 402.431 342.473 402.708 344.225C402.984 345.977 402.617 346.623 401.417 346.808C400.219 346.992 396.252 346.992 395.976 347.823C395.7 348.652 397.083 349.023 398.005 349.023C398.927 349.023 404.922 349.299 405.476 350.314C406.029 351.328 406.121 351.974 405.384 352.528C404.646 353.081 404.646 353.081 404.646 353.081C404.646 353.081 405.937 355.11 403.17 355.94C400.403 356.769 398.558 357.14 398.558 357.14C398.558 357.14 401.325 358.246 400.588 359.169C399.85 360.091 398.374 360.552 396.529 360.552C394.684 360.552 392.748 360.183 391.917 358.8C391.086 357.416 388.412 355.479 388.689 351.605C388.966 347.731 391.088 344.78 391.088 343.95C391.086 343.119 391.455 342.473 391.455 342.473Z" fill="white" stroke="#101410" stroke-miterlimit="10"/>
<path d="M404.645 353.081C404.645 353.081 397.174 353.911 394.314 352.712" stroke="#101410" stroke-miterlimit="10"/>
<path d="M398.558 357.138C398.558 357.138 396.067 357.6 394.039 356.862" stroke="#101410" stroke-miterlimit="10"/>
<path d="M395.514 342.566C395.514 342.566 393.116 342.935 392.193 343.673" stroke="#101410" stroke-miterlimit="10"/>
<path d="M446.895 276.34C446.895 276.34 449.741 276.909 453.154 274.063" stroke="#101410" stroke-miterlimit="10"/>
<path d="M448.413 257.752C448.413 257.752 450.879 255.098 454.103 258.89" stroke="#101410" stroke-miterlimit="10"/>
<path d="M448.223 264.013C448.223 264.013 450.879 261.546 453.344 264.582" stroke="#101410" stroke-miterlimit="10"/>
<path d="M449.172 247.7C449.172 247.7 451.826 244.285 457.138 243.148C462.449 242.01 458.439 243.754 456.731 245.84C455.024 247.926 457.328 254.528 459.983 257.184C462.639 259.84 464.724 262.874 466.052 264.013C467.38 265.151 468.708 270.461 468.329 274.444C467.949 278.427 468.708 282.79 464.156 288.101C459.605 293.411 452.587 303.844 457.138 305.93C461.69 308.016 471.565 301.388 474.411 302.527C477.255 303.665 482.934 308.016 484.641 314.275C486.349 320.535 483.503 328.311 487.487 335.709C491.469 343.106 499.056 340.261 503.419 333.243C507.781 326.225 509.488 315.034 504.747 309.724C500.005 304.413 500.574 303.465 502.47 296.636C504.367 289.808 503.229 286.395 496.78 282.79C490.331 279.187 492.226 278.664 491.846 273.162C491.467 267.662 492.987 259.08 490.141 252.253C487.297 245.425 478.572 237.269 471.364 236.321C464.156 235.373 458.656 238.029 457.518 238.029C456.379 238.029 447.086 236.701 444.43 240.495C441.774 244.288 447.276 250.927 447.276 250.927L449.172 247.7Z" fill="#101410" stroke="#101410" stroke-miterlimit="10"/>
<path d="M428.246 361.215C428.246 361.215 427.074 358.507 427.939 357.426C428.803 356.345 433.67 353.642 435.072 352.887C436.473 352.133 443.07 356.778 446.312 363.694C449.554 370.61 450.203 371.475 448.689 374.501C447.177 377.528 446.312 379.689 443.501 380.338C440.691 380.987 437.665 379.257 437.665 379.257C437.665 379.257 437.449 368.882 435.288 366.073C433.126 363.263 428.246 361.215 428.246 361.215Z" fill="white" stroke="#101410" stroke-miterlimit="10"/>
<path opacity="0.5" d="M259.89 612.714C259.89 615.081 213.411 617 156.078 617C98.7435 617 52.2657 615.081 52.2657 612.714C52.2657 610.347 98.7448 608.428 156.078 608.428C213.412 608.428 259.89 610.347 259.89 612.714Z" fill="#101410" stroke="#101410" stroke-miterlimit="10"/>
<path d="M97.6772 559.757C97.6772 559.757 89.0748 583.9 89.0748 586.12C89.0748 588.341 91.2951 593.891 93.238 595.834C95.1809 597.776 98.2332 598.886 96.013 601.106C93.7927 603.326 90.463 603.049 88.5201 601.938C86.5772 600.827 80.195 593.057 76.864 587.23C73.5342 581.402 69.9258 570.024 69.9258 570.024L66.3187 570.856L58.8258 553.927C58.8258 553.927 66.8734 547.822 71.0366 546.712C75.1998 545.602 77.6974 544.214 77.6974 544.214L97.6772 559.757Z" fill="#101410" stroke="#101410" stroke-miterlimit="10"/>
<path d="M139.858 441.26L142.356 477.336C142.356 477.336 135.14 481.777 136.529 483.72C137.917 485.663 138.749 488.992 138.749 488.992L136.251 491.767L134.308 495.653C134.308 495.653 126.815 495.099 124.873 497.596C122.93 500.094 88.5187 538.668 88.5187 538.668C88.5187 538.668 80.7485 537.28 79.9164 538.945C79.0842 540.611 77.6961 544.218 77.6961 544.218C77.6961 544.218 94.3474 559.758 95.1795 561.701C96.0117 563.644 98.2319 561.979 99.6201 561.424C101.008 560.869 105.17 556.151 107.39 553.654C109.611 551.156 134.864 528.955 134.864 528.955C134.864 528.955 160.95 511.471 163.725 505.921C166.5 500.371 160.673 448.198 158.175 444.314C155.676 440.428 141.801 436.265 139.858 441.26Z" fill="#F5AD44" stroke="#101410" stroke-miterlimit="10" stroke-linecap="round" stroke-linejoin="round"/>
<path d="M141.5 445.581L155.659 512.167L166.375 504.13L147.623 441.372L141.5 445.581Z" fill="#101410" stroke="#101410" stroke-miterlimit="10"/>
<path d="M166.499 601.107C166.499 601.107 166.222 613.873 167.331 614.15C168.441 614.428 187.867 614.15 187.867 614.15C187.867 614.15 192.308 615.261 197.858 614.982C203.408 614.705 224.775 615.26 226.164 614.982C227.552 614.705 228.384 611.097 227.273 609.71C226.164 608.323 225.053 607.767 222.833 607.49C220.612 607.212 210.067 602.217 207.292 599.719C204.517 597.222 193.972 588.619 193.972 588.619L166.499 601.107Z" fill="#101410" stroke="#101410" stroke-miterlimit="10"/>
<path d="M114.882 403.518C114.882 403.518 116.825 417.672 125.427 428.217C134.03 438.762 142.079 449.585 142.079 449.585L162.614 509.25L166.778 587.508C166.778 587.508 163.725 592.226 164.28 593.892C164.835 595.557 166.5 601.107 166.5 601.107C166.5 601.107 168.166 602.496 178.156 598.332C188.147 594.169 193.974 588.619 193.974 588.619C193.974 588.619 195.917 584.179 196.195 580.572C196.472 576.964 193.697 570.026 192.865 567.251C192.033 564.476 192.033 560.59 192.033 560.59L197.028 482.332L189.812 419.059L189.258 400.188C189.258 400.188 173.44 397.968 155.124 398.245C136.809 398.523 114.882 403.518 114.882 403.518Z" fill="#F5AD44" stroke="#101410" stroke-miterlimit="10" stroke-linecap="round" stroke-linejoin="round"/>
<path d="M173.471 570.314C173.284 575.801 173.16 579.462 173.16 579.462" stroke="#101410" stroke-miterlimit="10"/>
<path d="M164.751 451.279C166.01 459.89 167.679 468.5 169.83 474.561C175.935 491.767 177.6 503.422 177.6 503.422C177.6 503.422 175.657 506.197 175.657 507.585C175.657 508.974 177.323 512.026 177.323 512.026C177.323 512.026 178.711 509.528 177.046 514.246C175.38 518.964 175.103 519.796 175.103 521.184C175.103 522.122 174.216 548.401 173.64 565.346" stroke="#101410" stroke-miterlimit="10"/>
<path d="M161.504 419.615C161.504 419.615 162.204 431.508 163.897 444.984" stroke="#101410" stroke-miterlimit="10"/>
<path d="M167.332 512.303C167.332 512.303 184.816 502.867 190.366 495.931" stroke="#101410" stroke-miterlimit="10"/>
<path d="M189.533 500.926C189.533 500.926 178.155 511.749 172.604 516.189" stroke="#101410" stroke-miterlimit="10"/>
<path d="M150.958 405.461L161.504 414.342L167.887 405.184" stroke="#101410" stroke-miterlimit="10"/>
<path d="M165.667 415.729C165.667 415.729 177.046 409.347 181.208 411.288C185.371 413.231 186.758 416.006 186.758 416.006" stroke="#101410" stroke-miterlimit="10"/>
<path d="M166.222 419.06L173.992 418.226" stroke="#101410" stroke-miterlimit="10"/>
<path d="M128.085 267.382C128.085 267.382 112.48 278.738 107.667 299.681C102.852 320.624 109.111 399.821 108.87 401.745C108.629 403.671 111.759 409.208 114.889 408.245C118.018 407.282 175.55 401.745 175.55 401.745C175.55 401.745 184.939 407.764 189.271 403.43C193.604 399.097 194.326 392.358 194.086 384.654C193.845 376.951 183.494 317.494 178.198 307.865C172.902 298.237 156.293 280.183 156.293 280.183L128.085 267.382Z" fill="#101410" stroke="#101410" stroke-miterlimit="10"/>
<path d="M159.084 272.764L133.774 258.898L132.454 252.516C132.454 252.516 131.134 250.096 128.933 247.674C126.733 245.254 125.411 233.149 130.695 222.584C135.976 212.019 149.403 212.46 155.345 212.899C161.288 213.34 166.789 219.942 166.789 219.942C166.789 219.942 170.531 226.546 171.851 229.406C173.171 232.267 171.851 233.807 172.292 235.128C172.732 236.448 177.354 243.271 176.474 245.472C175.593 247.673 172.952 248.994 172.952 248.994C172.952 248.994 172.512 257.798 171.191 261.54C169.87 265.282 168.329 265.721 167.449 265.941C166.567 266.162 159.084 272.764 159.084 272.764Z" fill="white" stroke="#101410" stroke-miterlimit="10"/>
<path d="M131.298 250.683C132.749 250.334 134.649 249.508 136.635 247.894C140.157 245.032 145.878 234.908 145.878 234.908L149.84 234.688C149.84 234.688 153.361 231.827 154.021 229.626C154.682 227.426 151.601 226.765 150.72 225.885C149.84 225.004 154.682 220.382 154.902 217.741C155.122 215.1 153.361 212.899 153.361 212.899L153.311 212.778C146.751 212.485 135.436 213.093 130.691 222.584C125.409 233.147 126.729 245.253 128.93 247.674C129.912 248.752 130.706 249.818 131.298 250.683Z" fill="#101410" stroke="#101410" stroke-miterlimit="10"/>
<path d="M148.741 239.531C148.741 239.531 146.54 230.727 142.798 232.708C139.056 234.689 137.956 241.071 141.037 244.593C144.118 248.114 146.539 249.435 147.86 246.574" fill="white"/>
<path d="M148.741 239.531C148.741 239.531 146.54 230.727 142.798 232.708C139.056 234.689 137.956 241.071 141.037 244.593C144.118 248.114 146.539 249.435 147.86 246.574" stroke="#101410" stroke-miterlimit="10"/>
<path d="M169.648 236.779C169.648 238.177 169.155 239.311 168.548 239.311C167.941 239.311 167.448 238.178 167.448 236.779C167.448 235.382 167.941 234.248 168.548 234.248C169.156 234.249 169.648 235.382 169.648 236.779Z" fill="#101410"/>
<path d="M170.97 232.268C170.97 232.268 168.549 229.187 164.807 232.488" stroke="#101410" stroke-miterlimit="10"/>
<path d="M170.97 250.975C170.97 250.975 167.008 251.636 165.247 248.114" stroke="#101410" stroke-miterlimit="10"/>
<path d="M170.309 240.411C170.309 240.411 168.989 242.612 167.228 243.053" stroke="#101410" stroke-miterlimit="10"/>
<path d="M145.879 234.908L172.981 234.36" stroke="#101410" stroke-miterlimit="10"/>
<path d="M172.995 232.268H170.97V241.111H172.995V232.268Z" fill="#101410"/>
<path d="M172.98 234.36V236.004L147.188 235.751" fill="#101410"/>
<path d="M172.98 234.36V236.004L147.188 235.751" stroke="#101410" stroke-miterlimit="10"/>
<path d="M132.911 257.039L128.085 267.382L154.63 282.205L160.318 272.381L132.911 257.039Z" fill="white" stroke="#101410" stroke-miterlimit="10"/>
<path d="M186.651 299.999C191.4 299.999 195.25 296.149 195.25 291.4C195.25 286.652 191.4 282.802 186.651 282.802C181.903 282.802 178.053 286.652 178.053 291.4C178.053 296.149 181.903 299.999 186.651 299.999Z" fill="#B8B8B8" stroke="#101410" stroke-miterlimit="10" stroke-linecap="round" stroke-linejoin="round"/>
<path d="M202.931 299.311C207.68 299.311 211.53 295.461 211.53 290.712C211.53 285.963 207.68 282.114 202.931 282.114C198.182 282.114 194.333 285.963 194.333 290.712C194.333 295.461 198.182 299.311 202.931 299.311Z" fill="#F5AD44" stroke="#101410" stroke-miterlimit="10" stroke-linecap="round" stroke-linejoin="round"/>
<path d="M171.288 303.21C176.036 303.21 179.886 299.36 179.886 294.611C179.886 289.862 176.036 286.013 171.288 286.013C166.539 286.013 162.689 289.862 162.689 294.611C162.689 299.36 166.539 303.21 171.288 303.21Z" fill="#33B633" stroke="#101410" stroke-miterlimit="10" stroke-linecap="round" stroke-linejoin="round"/>
<path d="M203.462 279.886C203.462 279.886 201.973 282.986 199.989 286.337C198.004 289.686 190.265 295.267 191.552 303.208C193.464 314.995 207.436 316.02 212.146 309.907C218.374 301.825 214.006 288.445 213.882 285.095C213.758 281.746 213.511 278.768 213.511 278.768L208.176 277.155C208.176 277.155 206.315 276.288 203.462 279.886Z" fill="#101410" stroke="#101410" stroke-miterlimit="10" stroke-linecap="round" stroke-linejoin="round"/>
<path d="M212.022 275.543C212.022 275.543 212.27 270.456 211.277 271.574C210.285 272.69 210.161 274.427 209.417 275.172C208.672 275.916 206.812 275.42 205.696 276.04C204.58 276.661 203.338 279.514 203.462 279.886C203.587 280.258 208.301 278.149 208.921 278.521C209.541 278.894 209.912 282.491 210.534 283.111C211.154 283.731 212.892 280.133 212.892 280.133C212.892 280.133 213.14 283.234 213.76 281.746C214.381 280.258 215.247 277.279 212.022 275.543Z" fill="#33B633" stroke="#101410" stroke-miterlimit="10" stroke-linecap="round" stroke-linejoin="round"/>
<path opacity="0.56" d="M200.89 301.138C200.168 304.555 197.73 306.932 195.447 306.449C193.164 305.966 191.898 302.805 192.62 299.389C193.342 295.973 195.78 293.596 198.063 294.079C200.347 294.563 201.612 297.724 200.89 301.138Z" fill="white"/>
<path opacity="0.56" d="M205.057 281.227C205.057 281.227 202.642 285.907 200.377 288.925C198.112 291.943 197.66 292.85 198.565 293C199.471 293.151 202.338 294.963 202.943 291.793C203.547 288.623 208.226 281.982 207.924 280.622C207.623 279.265 206.717 279.416 205.057 281.227Z" fill="white"/>
<path opacity="0.56" d="M209.737 284.094C209.737 284.094 206.719 291.038 205.964 298.133C205.209 305.228 210.492 305.831 212.002 302.209C213.512 298.586 212.304 286.812 212.304 284.849C212.303 282.888 210.793 282.736 209.737 284.094Z" fill="white"/>
<path d="M147.443 291.253C147.443 291.253 144.092 357.718 145.208 363.303C146.325 368.889 146.604 372.239 146.604 372.239L219.214 366.654C219.214 366.654 218.655 305.774 218.376 304.098C218.096 302.422 216.98 289.297 216.98 289.297L147.443 291.253Z" fill="#33B633" stroke="#101410" stroke-miterlimit="10" stroke-linecap="round" stroke-linejoin="round"/>
<path d="M146.112 320.194C145.327 338.872 144.596 360.24 145.208 363.303C146.325 368.889 146.604 372.239 146.604 372.239L219.214 366.654C219.214 366.654 219.206 365.749 219.19 364.167L149.397 367.213L146.112 320.194Z" fill="#33B633" stroke="#101410" stroke-miterlimit="10" stroke-linecap="round" stroke-linejoin="round"/>
<path d="M198.417 341.085C198.417 341.085 204.436 335.548 205.88 335.307C207.324 335.066 210.695 335.067 211.898 334.344C213.102 333.622 216.232 332.418 215.028 335.548C213.824 338.678 212.38 340.844 210.936 341.085C209.491 341.326 208.287 342.048 208.287 342.048C208.287 342.048 219.119 347.585 220.082 349.75C221.045 351.917 221.527 353.602 220.564 354.324C219.601 355.046 216.953 355.769 216.953 355.769C216.953 355.769 221.286 358.898 220.564 361.305C219.841 363.713 219.36 364.435 218.156 364.435C216.953 364.435 215.508 364.916 215.508 364.916C215.508 364.916 215.99 367.324 214.305 368.768C212.619 370.213 211.175 370.453 210.453 369.25C209.731 368.046 208.286 366.12 208.286 366.12C208.286 366.12 210.453 369.25 206.36 370.213C204.935 370.548 200.823 363.472 200.823 363.472L192.157 357.935L198.417 341.085Z" fill="white" stroke="#101410" stroke-miterlimit="10"/>
<path d="M215.508 364.915L213.588 361.644L216.783 363.013" stroke="#101410" stroke-miterlimit="10"/>
<path d="M208.286 342.048L206.057 339.05" stroke="#101410" stroke-miterlimit="10"/>
<path d="M144.256 283.312C144.256 283.312 136.071 275.127 124.276 279.701C112.481 284.275 109.592 303.773 110.796 308.346C112 312.92 114.888 317.013 114.888 317.013C114.888 317.013 125.48 351.435 131.257 353.843C137.035 356.25 152.681 356.731 154.126 356.731C155.57 356.731 156.533 357.935 159.181 357.213C161.829 356.491 164.477 355.528 164.477 355.528L187.587 358.898C187.587 358.898 194.568 359.861 196.011 356.491C197.454 353.12 198.659 341.807 198.419 341.085C198.178 340.363 184.457 337.955 184.457 337.955C184.457 337.955 180.365 333.381 178.198 332.659C176.032 331.937 171.458 334.344 170.495 334.585C169.532 334.826 147.867 323.031 147.867 323.031C147.867 323.031 148.83 322.068 147.385 319.901C145.941 317.735 145.941 317.735 145.941 317.735L147.626 288.849L144.256 283.312Z" fill="white" stroke="#101410" stroke-miterlimit="10"/>
<path d="M131.007 331.89C131.007 331.89 137.945 323.49 144.155 323.125" stroke="#101410" stroke-miterlimit="10"/>
<path d="M143.423 319.474C143.423 319.474 134.659 312.9 124.433 315.822" stroke="#101410" stroke-miterlimit="10"/>
<path d="M165.09 286.03C166.542 287.918 167.457 289.357 168.006 290.411H171.638C171.277 289.91 170.143 287.966 171.976 285.318C174.114 282.23 175.775 278.194 174.114 278.669C172.451 279.144 170.789 282.468 170.789 282.468C170.789 282.468 170.551 272.493 168.651 273.443C166.752 274.393 166.277 277.006 166.277 277.006C166.277 277.006 161.551 271.998 160.317 272.381C159.083 272.764 159.864 275.581 159.864 275.581C159.864 275.581 153.69 271.782 151.552 273.206C149.415 274.631 154.64 277.956 154.165 278.669C153.69 279.382 147.991 275.344 145.378 277.481C142.766 279.619 144.903 281.28 144.903 281.28C144.903 281.28 135.403 277.956 133.742 280.33C132.079 282.705 138.016 282.943 138.016 283.893C138.016 284.843 129.229 287.456 130.179 290.305C131.129 293.155 137.541 288.642 138.966 288.167C140.391 287.693 145.853 284.13 152.265 283.893C158.678 283.655 162.715 282.942 165.09 286.03Z" fill="#F5AD44" stroke="#101410" stroke-miterlimit="10" stroke-linecap="round" stroke-linejoin="round"/>
<path d="M154.902 290.648H164.752C164.863 289.858 162.633 288.716 158.819 285.443C151.979 279.577 148.369 276.657 150.982 281.169C153.595 285.682 153.357 288.056 153.357 288.056C153.357 288.056 145.994 279.744 144.095 283.069C142.195 286.393 147.657 287.581 147.657 287.581C147.657 287.581 135.546 287.343 133.883 290.906C132.22 294.468 138.632 293.044 138.632 293.044C138.632 293.044 136.495 295.893 137.208 298.743C137.921 301.592 141.957 296.843 141.957 296.843C141.957 296.843 139.819 308.718 143.62 306.818C147.419 304.918 148.369 297.081 148.369 297.081C148.369 297.081 150.744 299.219 152.169 295.656C153.033 293.496 154.149 292.397 154.9 291.857V290.648H154.902Z" fill="#F5AD44" stroke="#101410" stroke-miterlimit="10" stroke-linecap="round" stroke-linejoin="round"/>
</svg>
